<?xml version="1.0" standalone="no"?>
<!DOCTYPE svg PUBLIC "-//W3C//DTD SVG 20010904//EN"
 "http://www.w3.org/TR/2001/REC-SVG-20010904/DTD/svg10.dtd">
<svg version="1.0" xmlns="http://www.w3.org/2000/svg"
 width="260.000000pt" height="260.000000pt" viewBox="0 0 260.000000 260.000000"
 preserveAspectRatio="xMidYMid meet">
<metadata>
Created by potrace 1.11, written by Peter Selinger 2001-2013
</metadata>
<g transform="translate(0.000000,260.000000) scale(0.100000,-0.100000)"
fill="#000000" stroke="none">
<path d="M1985 2239 c-174 -22 -295 -190 -260 -360 32 -156 151 -251 312 -250
114 1 222 71 274 178 32 65 33 186 1 254 -57 123 -191 196 -327 178z m79 -140
c8 -11 66 -151 66 -159 0 -6 -7 -10 -15 -10 -10 0 -14 -8 -11 -22 5 -32 -11
-58 -34 -58 -11 0 -19 -3 -19 -7 1 -5 1 -25 0 -45 l-1 -38 -60 0 -60 0 0 45
c0 40 -3 45 -34 60 -46 22 -70 73 -62 130 11 72 77 113 176 109 28 -1 52 -3
54 -5z m101 -1 c5 -5 75 -160 75 -165 0 -3 -7 -3 -15 1 -11 4 -15 -2 -16 -19
-2 -45 -4 -48 -24 -59 -28 -16 -31 -20 -29 -60 2 -32 -1 -36 -22 -36 -22 0
-24 4 -24 43 0 34 4 44 22 52 15 7 23 20 25 39 1 15 9 33 17 40 12 9 10 19
-13 71 -44 94 -46 105 -20 100 12 -2 23 -6 24 -7z"/>
<path d="M2011 2001 c-9 -16 -7 -23 11 -35 20 -14 24 -14 38 -1 11 12 12 20 4
33 -16 25 -41 26 -53 3z"/>
<path d="M1411 2229 c-91 -17 -160 -93 -161 -176 0 -77 41 -121 153 -160 84
-29 119 -59 110 -93 -12 -47 -83 -58 -149 -25 l-49 25 -37 -41 c-21 -22 -38
-45 -38 -49 0 -15 54 -48 98 -59 143 -39 281 23 297 133 17 108 -20 159 -144
201 -111 37 -138 72 -85 114 33 26 68 27 114 3 l35 -18 42 46 42 45 -22 17
c-44 35 -133 51 -206 37z"/>
<path d="M279 2194 c-1 -41 -1 -472 0 -512 l1 -33 62 3 63 3 -2 108 c-1 59 2
107 5 108 4 0 43 2 88 3 82 4 145 26 174 61 42 50 40 177 -3 223 -46 49 -72
56 -234 60 l-153 4 -1 -28z m275 -104 c26 -25 24 -69 -5 -91 -17 -13 -42 -19
-85 -19 l-62 0 3 68 c1 37 3 68 4 69 0 1 29 -1 64 -4 41 -3 68 -11 81 -23z"/>
<path d="M760 1935 l0 -286 143 2 c157 1 214 14 260 57 32 30 46 72 40 122 -5
46 -30 81 -77 104 l-37 18 28 18 c42 26 53 43 59 96 4 38 1 56 -15 81 -37 58
-68 67 -243 71 l-158 4 0 -287z m268 166 c27 -14 33 -57 13 -82 -12 -16 -32
-21 -84 -25 -74 -5 -71 -8 -69 66 1 59 -2 57 61 54 32 -1 68 -7 79 -13z m32
-236 c39 -35 11 -103 -42 -106 -40 -2 -120 1 -127 5 -5 3 -6 60 -2 113 2 21
147 10 171 -12z"/>
<path d="M2163 1559 c-93 -17 -155 -77 -159 -156 -5 -83 31 -123 146 -163 80
-27 105 -49 96 -83 -12 -50 -96 -60 -156 -17 l-28 20 -34 -40 c-18 -23 -33
-46 -33 -53 0 -7 22 -23 50 -37 39 -19 65 -24 120 -24 119 0 195 61 200 162 4
86 -32 125 -145 161 -47 15 -76 30 -86 46 -39 60 62 106 132 60 21 -13 25 -12
58 25 20 22 36 44 36 50 0 27 -133 60 -197 49z"/>
<path d="M276 1290 c1 -143 4 -264 8 -268 12 -11 105 -9 109 2 2 6 3 91 2 189
-1 97 2 174 6 170 6 -6 161 -258 217 -352 6 -11 30 -15 85 -16 l77 -1 0 268 0
268 -58 0 -58 0 0 -185 c1 -102 0 -185 -1 -185 -1 0 -52 83 -114 185 l-112
185 -81 0 -81 0 1 -260z"/>
<path d="M850 1282 l0 -267 185 0 c179 -1 185 0 186 20 5 64 3 85 -6 88 -5 2
-63 3 -127 2 -75 0 -118 3 -119 10 -5 61 -3 88 8 92 8 3 59 6 116 7 l102 1 0
50 0 50 -112 3 c-63 1 -113 7 -114 12 -1 6 -2 27 -2 48 l-1 37 122 3 122 3 0
54 0 55 -180 0 -180 0 0 -268z"/>
<path d="M1245 1530 c10 -32 115 -389 133 -450 8 -30 17 -57 19 -60 2 -2 25
-5 51 -5 l47 -1 61 186 61 185 37 -120 c20 -66 47 -149 59 -185 l22 -64 51 -1
52 -1 72 251 c40 137 75 258 78 268 4 15 -3 17 -55 17 l-59 0 -39 -157 c-21
-87 -42 -164 -46 -172 -4 -9 -28 52 -61 155 l-54 169 -55 3 -54 3 -54 -166
c-30 -91 -57 -163 -61 -158 -4 4 -24 79 -45 166 l-37 157 -65 0 c-60 0 -64 -1
-58 -20z"/>
<path d="M962 912 c-75 -27 -119 -68 -155 -142 -29 -61 -29 -176 0 -240 58
-131 208 -190 364 -144 108 32 192 155 183 270 -8 99 -20 129 -78 192 -67 72
-209 101 -314 64z m188 -113 c108 -61 108 -242 0 -301 -51 -28 -136 -21 -184
15 -98 75 -71 256 44 300 35 13 104 6 140 -14z"/>
<path d="M279 911 c-1 -8 -1 -502 0 -518 1 -18 107 -18 113 0 2 6 3 58 3 115
-1 56 1 102 4 103 3 0 53 1 111 2 l105 1 5 -115 5 -114 58 -2 57 -3 -2 268 -3
267 -56 1 -56 1 -1 -95 c0 -51 -3 -96 -6 -99 -4 -5 -135 -7 -202 -4 -19 1 -20
7 -20 92 1 50 -1 94 -4 98 -6 9 -110 11 -111 2z"/>
<path d="M1399 911 c-7 -46 1 -366 10 -399 15 -54 76 -117 128 -131 123 -34
235 6 285 103 20 38 22 57 22 236 l1 195 -57 1 -58 1 0 -168 c0 -93 0 -171 0
-174 0 -3 -6 -18 -15 -34 -35 -68 -115 -83 -166 -32 -32 33 -31 23 -34 236 -2
83 -3 155 -4 160 -1 11 -110 17 -112 6z"/>
<path d="M1910 649 l0 -269 58 3 57 2 1 90 c2 130 0 124 30 122 23 -2 34 -17
83 -109 l56 -107 68 1 c44 1 66 5 63 12 -2 6 -31 56 -64 111 -58 97 -60 100
-39 108 30 11 67 47 79 77 22 54 5 149 -30 177 -52 41 -76 46 -219 48 l-143 3
0 -269z m258 152 c30 -16 31 -75 1 -91 -29 -16 -139 -21 -140 -6 -4 43 -5 102
-2 108 6 11 116 3 141 -11z"/>
</g>
</svg>
