<?xml version="1.0" encoding="UTF-8"?>
<svg id="LOGOS" xmlns="http://www.w3.org/2000/svg" version="1.1" viewBox="0 0 150 150">
  <defs>
    <style>
      .cls-1 {
        fill: #1d428a;
      }

      .cls-1, .cls-2, .cls-3, .cls-4 {
        stroke-width: 0px;
      }

      .cls-2 {
        fill: #c8102e;
      }

      .cls-3 {
        fill: #fa4d00;
      }

      .cls-4 {
        fill: #fff;
      }
    </style>
  </defs>
  <g>
    <path class="cls-1" d="M70.3,63v31.4h-6.4v-37.1h5.4c.1.5.3,1.2.5,2,1.1-1.3,2.7-2.4,5.1-2.4s5,1.8,5,6v31.5h-6.4v-29.5c0-1.5-.4-2.3-1.6-2.3s-1.1.2-1.6.4"/>
    <path class="cls-1" d="M92.1,86.9v-22.2c0-1.5-.5-2.1-1.6-2.1-.6,0-1.1.1-1.6.3v25.7c.5.2,1,.3,1.6.3,1.2,0,1.6-.7,1.6-2.1M88.5,92.4l-.5,2h-5.4v-47.3h6.4v11.6c1-1,2.5-1.8,4.5-1.8,3,0,5,1.8,5,6.3v25.6c0,4.2-2,6-4.9,6s-4.1-1.1-5.1-2.4"/>
    <path class="cls-1" d="M110.8,88.7v-11.4c-2.4,0-3.2.8-3.2,3.2v5.8c0,1.7.3,2.7,1.6,2.7s1.1,0,1.6-.3M111.2,92.1c-1,1.4-2.6,2.6-4.8,2.6-3.3,0-5.1-2-5.1-6.5v-7.3c0-5.8,3.6-8.4,9.5-7.6v-7.4c0-2.7-.4-3.3-1.6-3.3s-1.6.6-1.6,3.3v4.6h-6.2v-4.6c0-6.8,2.5-9,7.9-9s7.9,2.6,7.9,9.4v28.1h-5.4c-.2-.5-.4-1.4-.6-2.3"/>
    <path class="cls-1" d="M39.2,96.9c0,5.7-2,7.2-5.6,7.2s-2.6-.1-3.6-.3v-5.2h.6c2,0,2.3-.6,2.3-2.3v-38.9h6.4v39.6Z"/>
    <path class="cls-1" d="M40.4,51c0,2.2-1.8,4-4,4s-4-1.8-4-4,1.8-4,4-4,4,1.8,4,4"/>
    <path class="cls-1" d="M59,90.4c0,2.2-1.8,4-4,4s-4-1.8-4-4,1.8-4,4-4,4,1.8,4,4"/>
    <path class="cls-1" d="M42,94.4v-37.1h5c.2.7.5,1.7.7,3,.7-1.9,2-3.2,3.8-3.2s.9.1,1.3.3v6.8h-2c-1.3,0-2.1.2-2.6,1.1v29.3h-6.4Z"/>
  </g>
  <g>
    <path class="cls-4" d="M21.8,45.9h-11.6c-2.8,0-5.1,2.3-5.1,5.1v39.4c0,2.8,2.3,5.2,5.1,5.2h11.6c2.8,0,5.2-2.3,5.2-5.2v-39.4c0-2.8-2.3-5.1-5.1-5.1"/>
    <path class="cls-2" d="M18.9,55v.2c.4.2.5.4.9.6.9.6,2.1,1.7,2,5.3.3.8.4,2.4.6,2.9.5,1,.8,1.6,1,2.5,0,0,.1,1.4.3,1.5,1,.2.7.3.8.5.2.2.7.2.7.7.2.3.3.5.5.8v-19c0-2.2-1.8-3.9-3.9-3.9h-3.8c.6.2.9.5,1.1.9.5,0,1.1,1.1.2,2.7.4.3,0,.7-.2,1.1,0,.1-.2.4-.4.4-.3.7-.8,1.4-1.1,1.5,0,.1-.2.4,0,.6.5.2,1,.5,1.3.8"/>
    <path class="cls-2" d="M25.7,72.7c-.5,1.3-1.8,2.2-3.3,2.2s-3.5-1.6-3.5-3.5,1.1-3,2.7-3.4c-.4-1-1.3-2.7-1.5-3.2-.2-.5-.8-3.9-.9-4.5,0-.1-1.5.9-1.5.9,0,0-1.1,2.8-1.2,2.9,0,0,0,.4,0,.4,0,0,.5,0,.8.9.3.9,1.2,4.1,1.2,4.1,0,0-.2.2-.2.2,1.1,3.7.7,5.3,1.2,6.4.6,1.5.8,1.3,1.3,2.6.4.9.8,4.6,1,4.8.6.8.9,1.4.9,1.8s-.5,1.7-.3,2.4c.1.4.2,1.4.4,1.6,0,0,.2.4,0,.5,0,0,0,.1,0,.2.3,1.2,1.4,3.2-.3,4.2h0c1.9-.3,3.3-1.9,3.3-3.9v-17.8Z"/>
    <path class="cls-1" d="M21.3,89.7c-.6-.6-.2-.8-.2-1-.4-1.7-1.8-2.8-1.1-3.3-.2-.6-.5-1.3-.5-1.3-2.1-1.2-3.9-3.2-4.3-3.5-.4-.4-1-.8-1.1-1.1-.5-.5-3-4-3.6-5.3h-1c-.5-2-2-3.6-2.1-5.5,0-.7.3-2.3.5-2.6.1-.3.7-.8.7-.8v-.5c-2.2,0-1.6-.2-2-1-.3-.6,0-.7,0-1.1.3-1.2,1.3-3.1,1.7-4,.1-.4.6-1.5.6-1.5,1.7-3.4,2.3-3.1,4.2-3.3h0c2-.2,1.6-.4,1.9-2.3-.3.1-.4-.6-.4-.6-.2-1.1.3-.9.5-.9,0-1.8.2-2.3,1.5-2.8h-6.6c-2.2,0-3.9,1.8-3.9,3.9v39.4c0,2.2,1.8,3.9,3.9,3.9h11.6c-1.3-.7-.5-2.1-.5-4.7"/>
    <path class="cls-4" d="M12.3,91.9v-7.1h1.4c.8,0,1.3.4,1.3,1.4v1.1c0,.6-.2,1-.5,1.1.3.2.5.5.5,1.1v1c0,1-.5,1.4-1.3,1.4h-1.4ZM13.3,88.8v2.2h.4c.3,0,.4-.2.4-.5v-1.2c0-.3-.1-.5-.4-.5h-.4ZM13.3,85.7v2.4h.4c.3,0,.4-.1.4-.5v-1.4c0-.3,0-.5-.4-.5h-.4ZM17.3,90.5h-.9v1.5h-1.1l.9-7.1h1.4l.8,7.1h-1v-1.5ZM16.8,85.6h0c0,.9-.2,2.4-.2,2.8v1.2c-.1,0,.6,0,.6,0v-1.2c-.1-.5-.3-2-.4-2.8M9.5,91.9h-.8v-7.1h1.3l1.1,5.8c0-1.4-.2-3.1-.2-4.5v-1.3h.8v7.1h-1.2l-1.1-5.7c0,1.3,0,2.4,0,3.5v2.2Z"/>
  </g>
  <g>
    <path class="cls-4" d="M139.9,45.9h-11.6c-2.8,0-5.1,2.3-5.1,5.1v39.4c0,2.8,2.3,5.2,5.1,5.2h11.6c2.8,0,5.2-2.3,5.2-5.2v-39.4c0-2.8-2.3-5.1-5.1-5.1"/>
    <path class="cls-3" d="M143,48.6c.2.4.3.9.3,1.4.2,0,.2.4.1.8-.1.5-.5,1.2-.6,1.6-.1.5-.2,1-.4,1.4-.1.4-.5.6-.5.8,0,.2-.2.8-.9,1.9-.7,1-1.5,1.9-1.5,1.9,0,0,0,.4-.3.7-.5.7-.8,1.1-.9,1.6-.1.4-.4.9-.7,1.4-.3.5-.5.7-.5,1.1,0,.8-.4,2.2-.7,2.8-.6,1.5-.8,3-.5,4,.3,1.2,1.2,2.3.7,4.5-.4,1.9-.8,2.6-.8,2.6,0,0,.9.8,1.2,1.8.5,1.3.7,4.5.7,4.5,0,0,.1,0,.3,0,.1,0,.3,1,.5,1.4.3.4,1.4,1.2,1.4,1.6,0,.4-.2,1.1-.3,1.7,0,.2,0,.3,0,.4,0,.9.6,1.8.7,2.2.2.5.9.8,1.1,1.6.2.6.2,1.6-.3,2,1.6-.5,2.8-2,2.8-3.8v-39.5c0-.9-.3-1.7-.8-2.3M140.4,94.4c-.2,0-.3,0-.5,0h-11.7c-2.2,0-3.9-1.8-3.9-3.9v-39.5c0-2.2,1.8-3.9,3.9-3.9h11.7c.2,0,.4,0,.6,0-1.3,0-2.5,1-2.7,2.3-.3,1.5.7,3,2.3,3.2.2,0,.4,0,.6,0,.1,0,.2.1.3.2.1.1.2.6.1.8,0,.2-.7.9-1.3,1.6-.6.7-.9.8-1.4,1.5-.3.3-.4.8-.4.8,0,0-.6.3-.9.8-.4.5-.9,1.6-.9,1.6,0,0-.4.2-.6.4-.2.2-.4.3-.7.8,0-.4.1-.5.3-.7.2-.1.4-.8.4-1.5.3-.2.6-.6.6-1,0-.6-.5-1.1-1.1-1.1-.2,0-.4,0-.6.2-.4-.2-1-.3-1.6-.1-.2,0-.4.1-.5.3-.1,0-.3.1-.6.5-.3.4-.1.7-.2.9,0,.1-.5.4-.3,1.4,0,.4,0,.7.1.8,0,.2.1.2.3.3.1,0,.2,0,.3.1.2,0,.2,0,.3.2,0,0,0,0,0,.1,0,0,0,.2,0,.2,0,0,0,.1-.1.1h-1.1c-.6,0-1,.3-1,.3,0,0-.6,0-1,.3-.4.3-.9.9-1,1.5,0,.2-.1.4-.2.6,0,.1-.4.4-.7.7-.2-.6-.5-1.4-.5-1.9,0,0,0-.1,0-.1,0-.2,0-.4,0-.5.2-.3.3-.6.2-.9,0-.2,0-.4,0-.7,0-.2,0-.3,0-.4,0-.1.1-.2.1-.3,0-.1-.2-.1-.3,0-.2,0-.3.3-.3.5,0,.1,0,.3-.1.3,0,0-.2,0-.3,0,0-.1-.1-.2-.2-.3,0-.1-.3-.9-.6-1.4,0,0-.1-.2-.2-.2,0,0-.2,0-.1.1,0,.2.2.5.3.7,0-.2-.2-.3-.3-.5,0-.1-.2-.2-.3-.3,0,0-.2,0-.2,0,0,0,0,.1,0,.2.2.2.3.5.5.7,0,0-.2-.2-.3-.2,0,0-.1,0-.2,0,0,0,0,.1,0,.2.1.2.3.3.4.5,0,.1.2.3.3.4,0,0-.2,0-.2,0,0,.2.3.3.3.5.2.4.1.9.1,1.4,0,.5,0,1.9,0,2.6-.2,1-.1,1.4.1,2.5.2.7.8.6,1.3.3.8-.6,1.7-1.8,1.9-2.1.2-.2.3-.5.4-.5.3.3.5,1.7.4,2.9,0,.3-.2.7-.1.9,0,.1.2.2.2.3,0,.9-.6,1.1-.8,2.1-.2,1,0,1.6.1,2.6.2,1,.7,1.9,1.1,2.6.4.7.5,1.2.5,1.2h.3s.6,2,1.7,3.6c3.2,4.5,4.3,6.5,4.6,7,.2.4,0,.4,0,.6,0,.2.2.4.7.7.5.3,1,1.5,1.2,2.1.2.6.6,1.6,1.3,1.7"/>
    <path class="cls-4" d="M127.2,90.6l-.4,1.3h-.7l-.6-1.8h.6l.4,1.3.4-1.3h.7l.4,1.3.4-1.3h.6l-.6,1.8h-.7l-.4-1.3ZM130.9,91.3v-1.2h.5v1.8h-.8l-1-1.2v1.2h-.5v-1.8h.8l1,1.2ZM134.2,91.4c0,.4-.3.5-.8.5h-1.6v-1.8h1.4c.5,0,.8.1.8.5s-.1.3-.3.4c0,0,0,0,0,0s0,0,0,0c.2,0,.4.2.4.4M133.5,90.7c0,0,0-.1-.2-.1h-.9v.3h.9c.2,0,.2,0,.2-.1M132.4,91.2v.3h1.1c.1,0,.2,0,.2-.1s0-.1-.2-.1h-1.1ZM136.1,91.5h-1l-.2.4h-.6l1-1.8h.7l1,1.8h-.6l-.2-.4ZM135.3,91.1h.6l-.3-.5-.3.5Z"/>
  </g>
</svg>