<svg  xmlns="http://www.w3.org/2000/svg" viewBox="0 0 16 16">
	<path class="st0" d="M11.291,8.666c-0.245,0.606-0.935,0.898-1.541,0.653S8.852,8.383,9.097,7.777
		C9.24,7.425,9.543,7.163,9.913,7.072C9.771,6.729,9.489,6.178,9.402,5.997C9.314,5.815,9.126,4.692,9.086,4.464
		C9.072,4.41,8.575,4.753,8.575,4.773C8.541,4.8,8.198,5.708,8.185,5.755L8.178,5.909c0,0,0.168,0.02,0.269,0.316
		C8.541,6.521,8.844,7.61,8.844,7.61L8.763,7.684c0.377,1.257,0.242,1.795,0.41,2.165c0.208,0.518,0.269,0.45,0.45,0.887
		c0.134,0.316,0.276,1.566,0.323,1.62c0.202,0.255,0.309,0.457,0.309,0.605s-0.168,0.578-0.108,0.827
		c0.04,0.148,0.054,0.477,0.128,0.538c0,0,0.06,0.128,0.034,0.175c-0.007,0.02-0.027,0.054-0.02,0.067
		c0.114,0.39,0.471,1.062-0.114,1.412h0.013c0.646-0.1,1.12-0.658,1.116-1.311V8.666H11.291z M8.985,2.689l0.007,0.054C9.113,2.81,9.173,2.871,9.294,2.945c0.323,0.202,0.719,0.558,0.666,1.802
		c0.087,0.276,0.128,0.8,0.215,0.968c0.168,0.329,0.276,0.545,0.329,0.861c0,0,0.054,0.491,0.114,0.518
		c0.329,0.074,0.235,0.108,0.282,0.168c0.054,0.067,0.242,0.06,0.242,0.242c0.06,0.081,0.114,0.175,0.155,0.276V1.351
		c0-0.733-0.598-1.324-1.324-1.324H8.696c0.202,0.067,0.316,0.161,0.39,0.289C9.254,0.329,9.449,0.699,9.14,1.244
		c0.134,0.087,0.034,0.222-0.067,0.383C9.045,1.681,9.018,1.768,8.924,1.761C8.81,2.003,8.669,2.239,8.561,2.259
		c-0.034,0.04-0.054,0.148-0.007,0.188C8.702,2.514,8.897,2.608,8.985,2.689z M9.798,14.42c-0.215-0.188-0.067-0.276-0.081-0.35c-0.141-0.585-0.605-0.934-0.363-1.129
		c-0.047-0.148-0.106-0.291-0.175-0.43c-0.726-0.41-1.331-1.082-1.439-1.183c-0.128-0.141-0.343-0.276-0.383-0.39
		c-0.461-0.565-0.871-1.17-1.224-1.808l-0.35-0.054C5.624,8.437,5.106,7.899,5.092,7.254c0.013-0.295,0.065-0.586,0.155-0.867
		c0.047-0.108,0.242-0.276,0.242-0.276V5.943c-0.753,0.02-0.531-0.054-0.666-0.35C4.736,5.392,4.797,5.345,4.83,5.203
		c0.101-0.41,0.437-1.055,0.578-1.344c0.047-0.148,0.188-0.504,0.188-0.504c0.558-1.143,0.766-1.055,1.439-1.123l0.034-0.047
		c0.666-0.034,0.558-0.081,0.652-0.726C7.62,1.506,7.593,1.257,7.593,1.257c-0.054-0.37,0.101-0.296,0.168-0.303
		C7.781,0.35,7.835,0.161,8.272,0H6.027C5.291,0.011,4.699,0.609,4.696,1.345v13.324C4.696,15.402,5.294,16,6.027,16h3.939
		C9.509,15.765,9.778,15.301,9.798,14.42z"/>
</svg>
