<svg width="182" height="170" viewBox="0 0 182 170" fill="none" xmlns="http://www.w3.org/2000/svg">
<g clip-path="url(#clip0_1279_2472)">
<path d="M89.7894 84.743L79.4608 149.701H92.4681L95.4045 130.635H107.536L110.035 146.9C110.292 148.519 111.683 149.701 113.331 149.701H125.875C123.248 148.39 122.733 144.998 122.398 142.84L113.151 84.743C112.559 80.6318 108.747 79.1672 104.78 79.1672H87.6516H88.6303C90.2788 80.0408 90.15 82.1992 89.7894 84.743ZM101.483 91.7065L105.862 119.971H97.1044L101.483 91.7065ZM3.27116 147.311C3.27116 148.622 4.3272 149.701 5.66657 149.701H19.4982C17.2058 149.084 16.5361 145.924 16.5361 143.148V120.973H21.9193C35.5191 120.973 40.3614 111.106 40.3614 102.653V97.4622C40.3614 89.0085 35.5191 79.1672 21.9193 79.1415H0C0 79.1415 3.27116 80.2721 3.27116 86.2848V147.285V147.311ZM16.5361 88.5203H21.4557C24.7784 88.5203 26.6329 90.2161 26.6329 96.1517V103.963C26.6329 109.899 24.7784 111.595 21.4557 111.595H16.5361V88.4946V88.5203ZM64.7535 74.1566H68.2307C81.9335 74.1566 86.2092 64.2125 86.2092 55.7074V18.4492C86.2092 9.94407 81.9335 0 68.2307 0H64.7535C51.0507 0 46.775 9.94407 46.775 18.4492V55.7331C46.775 64.2382 51.0507 74.1823 64.7535 74.1823V74.1566ZM60.6323 17.1131C60.6323 11.1261 63.1308 9.43017 66.4792 9.43017C69.8276 9.43017 72.3261 11.1518 72.3261 17.1131V57.0435C72.3261 63.0305 69.8276 64.7264 66.4792 64.7264C63.1308 64.7264 60.6323 63.0048 60.6323 57.0435V17.1131ZM1.85451 56.0414V18.4492C1.85451 9.94407 6.1302 0 19.833 0H22.3314C36.0342 0 40.3099 9.94407 40.3099 18.4492V26.2606H27.4314V17.1388C27.4314 11.1518 24.9329 9.45586 21.5845 9.45586C18.2361 9.45586 15.7376 11.1774 15.7376 17.1388V56.1956C15.7376 62.1826 18.2361 64.8292 21.5845 64.8292C24.9329 64.8292 27.4314 62.1826 27.4314 56.1956V44.607H22.9496V33.815H40.3872V66.2681C40.3872 72.3322 43.6841 73.4628 43.6841 73.4628H36.9615C34.4373 73.4628 31.604 72.2551 30.4965 67.8099C28.6677 70.7391 25.0359 73.026 20.9921 73.4628C7.36654 74.9788 1.85451 64.5209 1.85451 56.0157V56.0414ZM92.6484 66.2681V7.88845C92.6484 1.82437 89.3515 0.693773 89.3515 0.693773H102.462C104.419 0.693773 105.991 2.26118 105.991 4.21403V62.9021H121.29V73.5142H89.3515C89.3515 73.5142 92.6484 72.3836 92.6484 66.3195V66.2681ZM125.643 73.4628H151.066C164.768 73.4628 169.044 63.5187 169.044 55.0136V19.7083C169.044 11.2031 164.176 0.668077 150.473 0.668077H125.643C125.643 0.668077 128.94 1.79867 128.94 7.86276V66.2681C128.94 72.3322 125.643 73.4628 125.643 73.4628ZM142.926 10.0726H150.602C153.95 10.0726 155.805 12.3851 155.805 18.3464V56.3241C155.805 62.3111 153.95 64.007 150.602 64.007H142.926V10.0982V10.0726ZM169.894 149.675H158.072C156.706 149.675 155.47 148.904 154.878 147.671L142.154 116.168V149.675H128.966V86.3105C128.966 80.2721 125.695 79.1672 125.695 79.1672H138.702C140.608 79.1672 142.154 80.7089 142.154 82.6103V109.385L154.363 81.1714C154.955 79.938 156.191 79.1672 157.556 79.1672H169.379L155.161 111.697L169.894 149.701V149.675ZM75.3654 149.675H47.7022C46.3886 149.675 45.3068 148.622 45.3068 147.285V86.2848C45.3068 80.2464 42.0357 79.1415 42.0357 79.1415H75.5972V89.805H58.5717V108.074H70.9352V118.738H58.5717V138.96H75.3654V149.624V149.675ZM11.9771 162.034C12.2346 161.469 12.4149 160.647 12.4149 159.491C12.4149 158.206 12.2089 157.332 11.8225 156.587C11.3331 155.662 10.1998 155.122 8.78319 155.122H3.01359V169.974H5.84687V163.936H7.9332L9.94226 169.974H13.0589L10.6377 163.242C11.1528 163.114 11.6422 162.677 11.9771 162.034ZM9.34984 161.032C9.22106 161.341 8.8347 161.546 8.34531 161.546H5.92414V157.718H8.24229C8.8347 157.718 9.29833 158 9.42711 158.437C9.50439 158.694 9.58166 159.259 9.58166 159.748C9.58166 160.159 9.50439 160.724 9.3756 161.007L9.34984 161.032ZM18.2618 167.379H23.3875V170H16.6391C15.7376 170 15.0164 169.281 15.0164 168.381V157.152C15.0164 155.713 14.0119 155.174 14.0119 155.174H23.336V157.82H17.927V161.289H23.0784V163.885H17.927V167.045C17.927 167.225 18.0815 167.379 18.2618 167.379ZM83.3759 167.379H88.5015V170H81.7532C80.8517 170 80.1305 169.281 80.1305 168.381V157.152C80.1305 155.713 79.1259 155.174 79.1259 155.174H88.45V157.82H83.041V161.289H88.1925V163.885H83.041V167.045C83.041 167.225 83.1956 167.379 83.3759 167.379ZM152.147 167.379H157.273V170H150.525C149.623 170 148.902 169.281 148.902 168.381V157.152C148.902 155.713 147.898 155.174 147.898 155.174H157.222V157.82H151.813V161.289H156.964V163.885H151.813V167.045C151.813 167.225 151.967 167.379 152.147 167.379ZM28.7707 155.148L25.3708 170H28.3329L29.1056 166.403H32.5055L33.2782 170H36.2403L32.8404 155.148H28.7965H28.7707ZM29.6207 164.064L30.8055 157.872L31.9904 164.064H29.6207ZM111.709 167.379H116.834V170H110.086C109.185 170 108.463 169.281 108.463 168.381V157.152C108.463 155.713 107.459 155.174 107.459 155.174H116.783V157.82H111.374V161.289H116.525V163.885H111.374V167.045C111.374 167.225 111.528 167.379 111.709 167.379ZM124.407 155.148H119.333V170H124.69C126.519 170 127.498 169.383 128.116 168.407C128.811 167.353 128.94 165.401 128.94 162.291C128.94 159.748 128.837 157.743 128.09 156.664C127.421 155.662 126.287 155.174 124.433 155.174L124.407 155.148ZM125.798 166.762C125.515 167.353 125.025 167.559 124.252 167.559H122.243V157.692H124.201C124.999 157.692 125.463 157.949 125.772 158.54C126.055 159.054 126.158 161.212 126.158 162.266C126.158 163.396 126.081 166.146 125.798 166.737V166.762ZM162.45 155.148L159.05 170H162.012L162.785 166.403H166.185L166.958 170H169.92L166.52 155.148H162.476H162.45ZM163.3 164.064L164.485 157.872L165.67 164.064H163.3ZM137.26 155.148H146.635V157.795H143.39V169.974H140.479V157.795H137.26V155.148ZM41.1857 167.43H46.131V170H38.2494V155.148H41.1857V167.43ZM62.6929 162.317C63.3368 162.214 63.8004 161.983 64.2126 161.392C64.7277 160.673 64.8565 159.748 64.8565 158.745C64.8565 157.743 64.5989 156.844 64.1353 156.304C63.5171 155.559 62.7186 155.148 61.3278 155.148H55.2748V170H61.6368C63.105 170 63.8262 169.563 64.4959 168.767C64.9338 168.253 65.2686 167.096 65.2686 165.966C65.2686 164.964 65.0883 163.962 64.6762 163.371C64.161 162.677 63.4656 162.394 62.6929 162.317ZM58.1596 157.512H60.349C60.8126 157.512 61.3278 157.692 61.5338 158C61.7141 158.257 61.8429 158.848 61.8429 159.414C61.8429 160.107 61.7141 160.698 61.5338 160.981C61.302 161.315 60.8899 161.418 60.5808 161.418H58.1596V157.486V157.512ZM61.8687 167.148C61.6111 167.533 61.199 167.61 60.7353 167.61H58.1596V163.679H60.7611C61.1732 163.679 61.5853 163.782 61.8429 164.167C62.0747 164.501 62.2035 165.144 62.2035 165.657C62.2035 166.146 62.1005 166.788 61.8687 167.122V167.148ZM103.595 155.148H106.197L103.363 170H99.912C99.912 170 98.3665 161.212 98.2893 160.21C98.2893 161.187 96.615 170 96.615 170H93.2151L90.3045 155.148H93.0863C93.0863 155.148 95.0954 164.501 95.0954 165.452C95.0954 164.527 96.7953 155.148 96.7953 155.148H99.8347C99.8347 155.148 101.586 164.501 101.586 165.452C101.586 164.527 103.569 155.148 103.569 155.148H103.595ZM76.8336 162.034C77.0911 161.469 77.2714 160.647 77.2714 159.491C77.2714 158.206 77.0654 157.332 76.679 156.587C76.1896 155.662 75.0563 155.122 73.6397 155.122H67.8701V169.974H70.7034V163.936H72.7897L74.7987 169.974H77.9154L75.4942 163.242C76.0093 163.114 76.4987 162.677 76.8336 162.034ZM74.2063 161.032C74.0775 161.341 73.6912 161.546 73.2018 161.546H70.7806V157.718H73.0988C73.6912 157.718 74.1548 158 74.2836 158.437C74.3609 158.694 74.4381 159.259 74.4381 159.748C74.4381 160.159 74.3609 160.724 74.2321 161.007L74.2063 161.032Z" fill="#9B8743"/>
<path d="M181.999 145.024C181.948 148.056 180.299 149.7 177.131 149.7C173.963 149.7 172.211 148.056 172.186 145.024C172.186 144.407 172.186 143.225 172.186 142.12C172.237 139.165 174.143 137.752 177.105 137.752C180.067 137.752 181.948 139.114 182.025 142.12C182.025 142.917 182.025 144.022 182.025 145.024H181.999ZM180.917 144.69C180.917 143.97 180.917 142.66 180.917 142.095C180.866 140.013 179.629 138.883 177.08 138.883C174.53 138.883 173.293 139.988 173.242 142.069C173.242 142.891 173.242 144.253 173.242 144.69C173.242 147.362 174.607 148.621 177.08 148.621C179.81 148.621 180.866 147.362 180.917 144.69ZM179.861 147.08H178.033L177.054 144.793H176.384V147.08H174.504V140.604H177.389C178.29 140.604 178.857 140.861 179.243 141.195C179.707 141.632 179.861 142.223 179.861 142.583C179.861 142.917 179.758 143.559 179.526 143.893C179.295 144.202 178.934 144.382 178.702 144.459L179.887 147.054L179.861 147.08ZM177.981 142.84C177.981 142.583 177.93 142.403 177.801 142.275C177.595 142.043 177.183 141.992 176.384 141.992V143.688C177.157 143.688 177.595 143.636 177.826 143.405C177.93 143.251 177.981 143.097 177.981 142.84Z" fill="#9B8743"/>
</g>
<defs>
<clipPath id="clip0_1279_2472">
<rect width="182" height="170" fill="white"/>
</clipPath>
</defs>
</svg>
