<?xml version="1.0" encoding="utf-8"?>
<!-- Generator: Adobe Illustrator 22.0.1, SVG Export Plug-In . SVG Version: 6.00 Build 0)  -->
<svg version="1.1" id="Layer_1" xmlns="http://www.w3.org/2000/svg" xmlns:xlink="http://www.w3.org/1999/xlink" x="0px" y="0px"
	 viewBox="0 0 128 207" style="enable-background:new 0 0 128 207;" xml:space="preserve">
<style type="text/css">
	.st0{fill:#FFFFFF;}
	.st1{fill:#288CC8;}
	.st2{clip-path:url(#SVGID_2_);}
	.st3{clip-path:url(#SVGID_2_);fill:#288CC8;}
	.st4{clip-path:url(#SVGID_2_);fill:#FFFFFF;}
</style>
<polygon class="st0" points="0.3,0 0.3,161.2 128,161.2 128,35.4 92.6,35.4 92.6,0 "/>
<polygon class="st1" points="92.6,0 92.6,35.4 128,35.4 "/>
<polygon points="40.7,66.8 38.6,66.8 38.6,83.9 29.3,83.9 22.9,68.1 22.6,68.1 22.6,79.1 24.5,79.1 24.5,83.9 15.7,83.9 15.7,79.1 
	17.7,79.1 17.7,66.8 15.7,66.8 15.7,61.9 27.5,61.9 33.4,76.5 33.7,76.5 33.7,66.8 31.9,66.8 31.9,61.9 40.7,61.9 "/>
<g>
	<defs>
		<rect id="SVGID_1_" width="128" height="207"/>
	</defs>
	<clipPath id="SVGID_2_">
		<use xlink:href="#SVGID_1_"  style="overflow:visible;"/>
	</clipPath>
	<path class="st2" d="M50.4,84.3c-5.6,0-9.3-3.5-9.3-8c0-4.6,3.6-8.1,9.2-8.1c5.5,0,9.2,3.4,9.2,8.1C59.5,80.9,55.8,84.3,50.4,84.3
		 M50.3,72.1c-1.8,0-2.4,1.4-2.4,3.9c0,2.7,0.4,4.4,2.5,4.4c1.4,0,2.4-0.8,2.4-3.9C52.8,72.7,51.8,72.1,50.3,72.1"/>
	<polygon class="st2" points="85.4,72.6 84.4,72.6 81.1,83.9 75.4,83.9 72.7,75.5 72.4,75.5 69.6,83.9 64.1,83.9 60.9,72.6 
		59.9,72.6 59.9,68.5 68.1,68.5 68.1,72.6 66.9,72.6 68.2,78.7 68.5,78.7 71.8,68.5 75.5,68.5 78.8,78.8 79.2,78.8 80.4,72.6 
		79.2,72.6 79.2,68.5 85.4,68.5 	"/>
	<path class="st2" d="M39.7,113h-9.1v-5.6c0-2.4-1-3.3-3.4-3.3h-2.1v4h2.2v4.8H15.6v-4.8h2.1V95.8h-2.1V91h16.1c1.8,0,3,0.3,4.1,1
		c1.5,1,2.3,2.5,2.3,4.6c0,2.6-1.8,4.3-4.5,5.1v0.3c2.2,0.4,3.6,1,4.2,2.3c0.3,0.8,0.4,1.4,0.4,3.1v0.8h1.5V113z M26.9,95.5h-1.8
		v5.6h1.8c2.2,0,3.3-0.9,3.3-2.8C30.2,96.3,29.2,95.5,26.9,95.5"/>
	<path class="st2" d="M57.7,106.7H47.1c0.2,2.4,1.5,3.2,3,3.2c1,0,2-0.4,2.8-1.4h4.8c-1,3.4-4.1,4.9-7.9,4.9c-6.1,0-9.3-3.4-9.3-8.1
		c0-4.6,3.6-8.1,8.7-8.1c4.8,0,8.5,3.4,8.5,7.9C57.8,105.6,57.7,106.3,57.7,106.7 M51.9,104.4v-1c0-1.8-0.9-2.6-2.4-2.6
		c-1.4,0-2.5,0.7-2.5,2.6v1H51.9z"/>
	<path class="st2" d="M78.5,113h-7.6v-1.8h-0.3c-1.9,1.4-3.6,2.2-5.2,2.2c-3.9,0-6.6-3.4-6.6-8.1c0-4.6,2.8-7.9,6.8-7.9
		c1.6,0,3.4,0.8,5,2h0.3v-1.7h6.3v11.4h1.3V113z M68.2,101.4c-1.6,0-2.6,0.7-2.6,4c0,2.8,1,3.6,2.6,3.6c1.8,0,2.6-1.4,2.6-4
		C70.8,102.6,69.9,101.4,68.2,101.4"/>
	<path class="st2" d="M99.5,113H92v-1.8h-0.3c-2,1.5-3.6,2.2-5.2,2.2c-3.9,0-6.6-3.4-6.6-8.1c0-4.6,2.8-7.9,6.8-7.9
		c1.6,0,3.1,0.7,4.7,1.9h0.3v-4.4h-1.9v-4.1h8.4v18.2h1.3V113z M89.3,101.4c-1.5,0-2.7,0.7-2.7,4c0,2.8,1.1,3.6,2.6,3.6
		c1.8,0,2.6-1.4,2.6-4C91.8,102.6,91,101.4,89.3,101.4"/>
	<polygon class="st3" points="36.8,129.5 32.5,129.5 32.5,125.2 29.9,125.2 29.9,137.8 32.7,137.8 32.7,142.7 19.8,142.7 
		19.8,137.8 22.5,137.8 22.5,125.2 20,125.2 20,129.5 15.6,129.5 15.6,120.7 36.8,120.7 	"/>
	<path class="st3" d="M58.4,142.7h-7.9v-9.5c0-1-0.9-1.8-2.1-1.8c-1.3,0-2.3,0.9-2.3,2.6v4.6h1.2v4.1h-9.1v-4.1h1.3v-14.1h-1.4v-4.1
		h8v9.1h0.3c2-1.8,3.8-2.5,5.3-2.5c3,0,5.3,2,5.3,4.6v7h1.3V142.7z"/>
	<path class="st3" d="M69,142.7h-9.2v-4.1h1.3v-7.3h-1.3v-3.9h7.9v11.2H69V142.7z M67.7,125.2h-6.6v-4.9h6.6V125.2z"/>
	<path class="st3" d="M78.8,143c-1.6,0-3-0.3-5-1.4v1.1h-3.4v-5.1h3.4c0.3,1.2,0.8,2.3,2.9,2.3c1.3,0,1.9-0.8,1.9-1.5
		c0-0.8-0.6-1.2-1.3-1.4l-3.4-1.1c-2.3-0.8-3.2-2.4-3.2-4.1c0-2.6,2.7-4.8,6-4.8c1.3,0,2.7,0.4,4.1,1.3v-0.9h3.5v4.9H81
		c-0.1-1.4-0.7-2.4-2.3-2.4c-0.8,0-1.7,0.6-1.7,1.4c0,0.8,0.5,1.3,1.5,1.7l3,1c2.3,0.8,3.4,2.2,3.4,4C85,140.7,82.4,143,78.8,143"/>
	<path class="st4" d="M9.8,172.8c0-1.4-1.3-1.8-2.5-1.8v0.1c0.7,0.1,1.2,0.3,1.2,0.8c0,0.3-0.2,0.7-0.9,0.7c-0.5,0-1.4-0.3-2.2-0.6
		c-0.9-0.3-1.8-0.6-2.5-0.6c-1.4,0-2.5,1-2.5,2.3c0,1,0.8,1.4,1.1,1.5l0-0.1c-0.2-0.1-0.3-0.3-0.3-0.7c0-0.4,0.3-0.9,1-0.9
		c0.7,0,1.5,0.3,2.7,0.6c1,0.3,2,0.5,2.6,0.6v2.3l-1.1,0.9l1.1,0.9v3.1c-0.6,0.3-1.2,0.4-1.8,0.4c-1.1,0-2-0.3-2.8-1.2l3-1.4v-5
		l-3.6,1.6c0.4-1,1.1-1.7,1.9-2.2l0-0.1C2,175,0,177,0,179.5c0,2.9,2.3,5.1,5,5.1c2.9,0,4.6-2.3,4.6-4.7H9.6
		c-0.4,0.9-1.1,1.8-1.9,2.3V179l1.2-0.9l-1.2-0.9v-2.3C8.7,174.9,9.8,174.2,9.8,172.8 M3.7,180.9l-0.8,0.4c-0.5-0.7-0.9-1.6-0.9-2.8
		c0-0.5,0.1-1.2,0.2-1.7l1.5-0.7L3.7,180.9z M17.3,176.9l-0.6,0.4l-1.7-1.5l-2,1.5v-6l-2.7,1.9c0.3,0.1,0.7,0.3,0.7,1v8.2l-0.9,0.7
		l0.1,0.1l0.5-0.3l1.6,1.5l2.2-1.4l-0.1-0.1l-0.6,0.4l-0.8-0.8v-5l0.5-0.4l1.2,1v4.3c0,2.7-0.6,3.3-1.8,3.8v0.1
		c2,0.1,3.9-0.6,3.9-4.1v-4.7l0.6-0.5L17.3,176.9z M20.9,184.4l3.2-2.5l-0.1-0.1l-1.7,1.3l-1.9-1.5v-0.9l3.3-2.3l-1.7-2.6l-3.6,2
		v4.8l-0.7,0.6l0.1,0.1l0.7-0.5L20.9,184.4z M20.5,180.4v-3.6l1.6,2.5L20.5,180.4z M37.1,172.2c0-0.2-0.1-0.4-0.1-0.7h-0.1
		c-0.2,0.6-0.5,0.9-1.2,0.9c-0.6,0-1.1-0.4-1.4-0.7c0,0-2.1,2.4-2.1,2.4l0.1,0.1l0.6-0.7c0.4,0.3,0.8,0.7,1.8,0.8v6l-4.2-7.3
		c-0.3-0.6-0.9-1.4-1.9-1.4c-1.1,0-2,1-1.9,2.6H27c0.1-0.4,0.3-0.9,0.8-0.9c0.4,0,0.7,0.4,0.9,0.7v2.4c-1.3,0-2,0.6-2,1.6
		c0,0.4,0.3,1.4,1.2,1.5v-0.1c-0.1-0.1-0.2-0.2-0.2-0.5c0-0.4,0.3-0.6,0.8-0.6c0.1,0,0.2,0,0.3,0v3.1c-1.5,0-2.7,0.9-2.7,2.3
		c0,1.4,1.2,2,2.4,1.9v-0.1c-0.8-0.1-1.2-0.5-1.2-1c0-0.6,0.4-0.9,1-0.9c0.6,0,1,0.4,1.4,0.8l2.1-2.3l-0.1-0.1l-0.5,0.6
		c-0.8-0.7-1.3-1-2.2-1.2v-7.2l5.8,10.2H35v-10.1C36.1,174.3,37.1,173.4,37.1,172.2 M39.1,184.4l3.2-2.5l-0.1-0.1l-1.7,1.3l-1.9-1.5
		v-0.9l3.3-2.3l-1.7-2.6l-3.6,2v4.8l-0.7,0.6l0.1,0.1l0.7-0.5L39.1,184.4z M38.6,180.4v-3.6l1.6,2.5L38.6,180.4z M53.4,176.6
		l-0.5,0.4l-1.4-1.2l-1.6,1.4l0.7,0.6v5.4l-1.6-1.1v-4.4l0.6-0.4l-1.7-1.6l-1.6,1.4l0.7,0.6v5.2l-0.1,0.1l-1.5-1.1v-4.3
		c0-1-0.5-1.3-1.1-1.7c-0.5-0.3-0.8-0.6-0.8-1.1c0-0.6,0.5-0.8,0.6-0.9c-0.6,0-2.1,0.5-2.1,1.9c0,0.7,0.3,1,0.7,1.4
		c0.4,0.3,0.7,0.7,0.7,1.3v4.2l-0.7,0.6l0.1,0.1l0.7-0.6l1.8,1.5l1.8-1.2l1.9,1.2l3.8-2.2v-4.9l0.8-0.7L53.4,176.6z M66.1,172.5
		l-0.7,0.7l-1.6-1.4l-2.2,1.8v-1.7h-0.1v11.8c-0.2,0-0.7-0.2-1.3-0.3v-9.9c0-0.7-0.5-1.7-1.8-1.7c-1.3,0-2.1,1.1-2.1,2h0.1
		c0.1-0.4,0.4-0.8,0.8-0.8c0.4,0,0.8,0.3,0.8,1.2v2.8c-1.2,0.1-2,0.8-2,1.6c0,0.5,0.3,1.3,1.2,1.4V180c-0.3-0.1-0.4-0.3-0.4-0.5
		c0-0.4,0.4-0.6,0.9-0.6h0.1v4.5c-1.1,0.4-1.5,1.1-1.5,1.9c0,1.2,1,2.1,2.4,2.1c1,0,1.7-0.2,2.6-0.4c0.7-0.2,1.5-0.3,2-0.3
		c0.6,0,0.8,0.2,0.8,0.6c0,0.5-0.2,0.8-0.5,0.8v0.1c1.2-0.2,1.9-0.9,1.9-2c0-1.1-1.1-1.8-2.2-1.8c-0.6,0-1.7,0.2-2.6,0.4
		c-1,0.2-1.9,0.3-2.2,0.3c-0.5,0-1.1-0.2-1.1-0.9c0-0.6,0.5-1.1,1.7-1.1c0.7,0,1.3,0.1,2.2,0.3c0.9,0.2,1.5,0.4,2.2,0.4
		c1.1,0,1.9-0.4,1.9-1.9v-9l0.8-0.7L66.1,172.5z M63.1,177.2c-0.2,0.2-0.4,0.4-0.8,0.4c-0.4,0-0.6-0.2-0.8-0.4v-3.6l0.5-0.4l1.1,0.9
		V177.2z M63.1,178.9c-0.2-0.2-0.4-0.3-0.8-0.3c-0.4,0-0.6,0.2-0.8,0.3v-1.5c0.2,0.1,0.4,0.3,0.8,0.3c0.4,0,0.6-0.2,0.8-0.3V178.9z
		 M63.1,182.5c0,0.6-0.3,1.2-1.1,1.2c-0.1,0-0.4,0-0.5,0v-4.6c0.2-0.2,0.4-0.4,0.8-0.4c0.4,0,0.6,0.2,0.8,0.4V182.5z M69.3,184.4
		l3.5-2.2v-4.8l-2.3-1.7l-3.5,2v4.7l-0.7,0.6l0.1,0.1l0.6-0.5L69.3,184.4z M69,181.9v-5.1l1.8,1.3v5.1L69,181.9z M79.5,175.9
		c-0.3,0.2-0.5,0.3-0.8,0.3c-0.3,0-0.6-0.2-0.8-0.4c0,0-1.3,1.4-1.3,1.4l-1.3-1.4l-2.1,1.5l0.1,0.1l0.6-0.4l0.8,0.8v4.6l-0.9,0.7
		l0.1,0.1l0.5-0.3l1.7,1.5l2.2-1.5l-0.1-0.1l-0.6,0.3l-0.9-0.8v-5.1c0.4,0.4,0.8,0.7,1.3,0.7C78.8,178.1,79.4,177,79.5,175.9
		 M87.8,182.7l-0.7,0.4l-3.6-5.4l0.2-0.3c0.4,0.2,0.8,0.6,1.5,0.6c0.7,0,1.7-0.8,1.8-2.3c-0.2,0.3-0.6,0.6-1.2,0.6
		c-0.4,0-0.9-0.3-1.2-0.6l-2.5,3.6l3.3,5l2.4-1.6L87.8,182.7z M83.4,182.9l-0.6,0.4l-0.8-0.8v-11.1l-2.7,1.9c0.3,0.1,0.7,0.3,0.7,1
		v8.2l-0.9,0.7l0.1,0.1l0.5-0.3l1.6,1.5l2.2-1.4L83.4,182.9z M99.4,172.8c0-1.4-1.3-1.8-2.5-1.8v0.1c0.7,0.1,1.2,0.3,1.2,0.8
		c0,0.3-0.2,0.7-0.9,0.7c-0.5,0-1.4-0.3-2.2-0.6c-0.9-0.3-1.8-0.6-2.5-0.6c-1.4,0-2.5,1-2.5,2.3c0,1,0.8,1.4,1.1,1.5l0-0.1
		c-0.2-0.1-0.3-0.3-0.3-0.7c0-0.4,0.3-0.9,1-0.9c0.7,0,1.5,0.3,2.7,0.6c1,0.3,2,0.5,2.6,0.6v2.3l-1.1,0.9l1.1,0.9v3.1
		c-0.6,0.3-1.2,0.4-1.8,0.4c-1.1,0-2-0.3-2.8-1.2l3-1.4v-5l-3.6,1.6c0.4-1,1.1-1.7,1.9-2.2l0-0.1c-2.2,0.6-4.1,2.6-4.1,5
		c0,2.9,2.3,5.1,5,5.1c2.9,0,4.6-2.3,4.6-4.7h-0.1c-0.4,0.9-1.1,1.8-1.9,2.3V179l1.2-0.9l-1.2-0.9v-2.3
		C98.3,174.9,99.4,174.2,99.4,172.8 M93.2,180.9l-0.8,0.4c-0.5-0.7-0.9-1.6-0.9-2.8c0-0.5,0.1-1.2,0.2-1.7l1.5-0.7L93.2,180.9z
		 M101.6,172.3l-1.5,1.3l1.3,1.5l1.5-1.3L101.6,172.3z M103.9,182.9l-0.6,0.4l-0.8-0.8v-5l0.6-0.5l-0.1-0.1l-0.5,0.4l-1.3-1.5
		l-2.1,1.4l0.1,0.1l0.5-0.3l0.7,0.9v4.6l-0.9,0.7l0.1,0.1l0.5-0.3l1.6,1.5l2.2-1.4L103.9,182.9z M115.5,182.8l-0.5,0.3l-0.8-0.8
		v-4.9l0.7-0.5l-0.1-0.1l-0.6,0.4l-1.7-1.5l-1.9,1.5l-1.7-1.5l-1.9,1.5l-1.3-1.5l-2.1,1.4l0.1,0.1l0.5-0.3l0.7,0.8v4.6l-0.6,0.6
		l1.7,1.4l1.6-1.4l-0.7-0.6v-4.9l0.4-0.3l1.2,1v4.3l-0.6,0.6l1.7,1.4l1.6-1.4l-0.7-0.6v-4.9l0.4-0.3l1.2,1v4.2l-0.5,0.5l1.7,1.5
		l2.2-1.5L115.5,182.8z M121.5,181.8l-1.7,1.3l-1.9-1.5v-0.9l3.3-2.3l-1.7-2.6l-3.6,2v4.8l2.5,1.8l3.1-2.5L121.5,181.8z M118,180.4
		v-3.6l1.6,2.5L118,180.4z M127.8,179.8l-1.4-1.1c0.9-0.8,1.3-1.8,1.3-2.6c0-0.1,0-0.3,0-0.5h-0.1c-0.1,0.4-0.5,0.7-1.1,0.7
		c-0.6,0-0.9-0.3-1.2-0.7l-3.2,1.8v2.6l1.2,1c-1.2,1.1-1.5,1.8-1.5,2.4c0,0.6,0.4,1.2,1,1.4l0.1-0.1c-0.2-0.1-0.3-0.2-0.3-0.6
		c0-0.2,0.2-0.6,0.8-0.6c0.7,0,1.1,0.5,1.4,0.7c0,0,3.1-1.9,3.1-1.9V179.8z M127.1,177.6c-0.5,0.9-1.5,1.7-2.2,2.2l-0.8-0.7v-2.5
		c0.3,0.7,0.9,1.3,1.8,1.3C126.4,177.9,126.7,177.8,127.1,177.6 M125.8,183.3c-0.4-0.8-1.1-1.4-2-1.4c-0.2,0-0.8,0-1.4,0.3
		c0.3-0.6,1.3-1.6,2.5-2.3l0.8,0.7V183.3z"/>
	<path class="st4" d="M14.5,203c0,0.6-0.1,1.1-0.4,1.6s-0.6,0.9-1.1,1.3c-0.2,0.2-0.5,0.3-0.7,0.5c-0.2,0.1-0.5,0.2-0.8,0.3
		c-0.3,0.1-0.7,0.1-1.1,0.1c-0.4,0-0.9,0-1.5,0H0.4v-3.1h1.3v-8H0.4v-3.1h9.1c0.7,0,1.3,0.1,1.9,0.3c0.6,0.2,1,0.4,1.4,0.8
		c0.4,0.3,0.7,0.7,0.9,1.2c0.2,0.5,0.3,1,0.3,1.6c0,0.8-0.2,1.4-0.6,1.9c-0.4,0.5-1,0.9-1.9,1.2v0c0.5,0.1,0.8,0.3,1.1,0.4
		s0.5,0.3,0.7,0.5c0.3,0.3,0.6,0.7,0.8,1.1C14.4,202.1,14.5,202.6,14.5,203 M9.3,197.2c0-0.2-0.1-0.5-0.2-0.7
		c-0.1-0.2-0.3-0.4-0.4-0.5c-0.2-0.1-0.4-0.2-0.6-0.2c-0.3,0-0.6,0-1.1,0v2.9l0.4,0c0.3,0,0.6,0,0.7,0c0.2,0,0.3-0.1,0.5-0.2
		c0.2-0.1,0.4-0.3,0.6-0.5C9.2,197.7,9.3,197.5,9.3,197.2 M9.3,202.3c0-0.2-0.1-0.5-0.2-0.7c-0.1-0.2-0.3-0.4-0.5-0.5
		c-0.2-0.1-0.3-0.2-0.6-0.2c-0.2,0-0.5-0.1-0.9-0.1H6.9v2.9h0.6c0.2,0,0.3,0,0.4,0c0.1,0,0.2,0,0.3-0.1c0.1,0,0.2,0,0.2-0.1
		c0.2-0.1,0.4-0.3,0.6-0.5C9.2,202.9,9.3,202.6,9.3,202.3"/>
	<path class="st4" d="M26.8,202c0,0.7-0.1,1.4-0.4,2c-0.3,0.6-0.7,1.1-1.2,1.6c-0.5,0.4-1.1,0.8-1.9,1c-0.7,0.2-1.5,0.4-2.4,0.4
		c-0.9,0-1.6-0.1-2.4-0.4c-0.7-0.3-1.3-0.6-1.9-1.1c-0.5-0.4-0.9-1-1.2-1.6c-0.3-0.6-0.4-1.3-0.4-2c0-0.7,0.1-1.4,0.4-2
		c0.3-0.6,0.7-1.2,1.2-1.6c0.5-0.5,1.1-0.8,1.9-1.1c0.7-0.3,1.5-0.4,2.3-0.4c0.9,0,1.7,0.1,2.4,0.4c0.7,0.2,1.3,0.6,1.9,1
		c0.5,0.4,0.9,1,1.2,1.6C26.7,200.6,26.8,201.3,26.8,202 M22.2,202.1c0-0.8-0.1-1.3-0.2-1.6c-0.1-0.3-0.3-0.5-0.5-0.7
		c-0.2-0.2-0.4-0.3-0.7-0.3c-0.4,0-0.7,0.2-0.9,0.6c-0.2,0.4-0.3,0.9-0.3,1.7c0,0.8,0.1,1.4,0.3,1.9c0.2,0.4,0.5,0.6,1,0.6
		c0.2,0,0.4-0.1,0.7-0.3c0.2-0.2,0.4-0.4,0.5-0.7C22.2,203.1,22.2,202.7,22.2,202.1"/>
	<path class="st4" d="M39.1,202c0,0.7-0.1,1.4-0.4,2c-0.3,0.6-0.7,1.1-1.2,1.6c-0.5,0.4-1.1,0.8-1.9,1c-0.7,0.2-1.5,0.4-2.4,0.4
		c-0.9,0-1.6-0.1-2.4-0.4c-0.7-0.3-1.3-0.6-1.9-1.1c-0.5-0.4-0.9-1-1.2-1.6c-0.3-0.6-0.4-1.3-0.4-2c0-0.7,0.1-1.4,0.4-2
		c0.3-0.6,0.7-1.2,1.2-1.6c0.5-0.5,1.1-0.8,1.9-1.1c0.7-0.3,1.5-0.4,2.3-0.4c0.9,0,1.7,0.1,2.4,0.4c0.7,0.2,1.3,0.6,1.9,1
		c0.5,0.4,0.9,1,1.2,1.6C39,200.6,39.1,201.3,39.1,202 M34.6,202.1c0-0.8-0.1-1.3-0.2-1.6c-0.1-0.3-0.3-0.5-0.5-0.7
		c-0.2-0.2-0.4-0.3-0.7-0.3c-0.4,0-0.7,0.2-0.9,0.6c-0.2,0.4-0.3,0.9-0.3,1.7c0,0.8,0.1,1.4,0.3,1.9c0.2,0.4,0.5,0.6,1,0.6
		c0.2,0,0.4-0.1,0.7-0.3c0.2-0.2,0.4-0.4,0.5-0.7C34.5,203.1,34.6,202.7,34.6,202.1"/>
	<polygon class="st4" points="48.6,206.8 45,202.8 45,206.8 39.6,206.8 39.6,204.2 40.4,204.2 40.4,195.3 39.6,195.3 39.6,192.6 
		45,192.6 45,202.1 47.7,199.7 46.2,199.7 46.2,197.1 52.1,197.1 52.1,199.7 51.1,199.7 49.2,201.5 51.8,204.2 52.6,204.2 
		52.6,206.8 	"/>
	<path class="st4" d="M64.4,206.8v-3.5c0-0.8-0.2-1.3-0.5-1.6c-0.3-0.3-0.9-0.5-1.6-0.5h-0.4v2.5h1.4v3.1h-8v-3.1h1.3v-8h-1.3v-3.1
		h10.3c0.6,0,1.1,0,1.5,0.2c0.4,0.1,0.8,0.3,1.1,0.5c1,0.7,1.5,1.7,1.5,3c0,1.3-0.5,2.2-1.4,2.8c-0.1,0.1-0.3,0.2-0.5,0.2
		c-0.2,0.1-0.4,0.2-0.8,0.3v0c0.7,0.1,1.3,0.3,1.6,0.5c0.4,0.2,0.6,0.5,0.8,0.9c0.1,0.2,0.2,0.5,0.2,0.8c0,0.3,0,0.7,0,1.3v0.4v0.2
		h0.9v3.1H64.4z M64.3,197.4c0-0.6-0.1-1-0.4-1.3c-0.3-0.2-0.7-0.4-1.3-0.4h-0.7v3.3h0.7c0.6,0,1-0.1,1.3-0.4
		C64.1,198.4,64.3,197.9,64.3,197.4"/>
	<path class="st4" d="M82,203h-6.4c0.2,1.1,0.7,1.6,1.7,1.6c0.3,0,0.6-0.1,0.8-0.2c0.2-0.1,0.5-0.3,0.7-0.7H82
		c-0.2,0.5-0.4,0.8-0.5,1.1c-0.2,0.3-0.4,0.5-0.6,0.7c-0.4,0.4-1,0.8-1.7,1c-0.7,0.2-1.4,0.4-2.3,0.4c-1.9,0-3.3-0.4-4.2-1.3
		c-0.5-0.5-0.9-1.1-1.2-1.7c-0.3-0.7-0.4-1.4-0.4-2.1c0-0.7,0.1-1.4,0.4-2c0.3-0.6,0.7-1.1,1.1-1.6c0.5-0.4,1.1-0.8,1.8-1
		c0.7-0.2,1.4-0.4,2.2-0.4c0.7,0,1.3,0.1,1.9,0.3c0.6,0.2,1.1,0.5,1.6,0.9c0.3,0.2,0.6,0.5,0.8,0.8c0.2,0.3,0.5,0.7,0.6,1
		c0.2,0.4,0.3,0.8,0.4,1.2c0.1,0.4,0.1,0.8,0.1,1.2L82,203z M78,201.2c0-1.1-0.4-1.7-1.2-1.7c-0.5,0-0.9,0.3-1.1,0.8
		c0,0.1-0.1,0.2-0.1,0.4c0,0.1,0,0.3,0,0.6v0.2H78V201.2z"/>
	<polygon class="st4" points="92.5,199.7 89.2,206.8 85.8,206.8 82.9,199.7 82.2,199.7 82.2,197.1 88.2,197.1 88.2,199.7 
		87.5,199.7 88.7,202.7 89.9,199.7 89.2,199.7 89.2,197.1 93,197.1 93,199.7 	"/>
	<path class="st4" d="M93.9,206.8v-2.6h0.8v-4.5h-0.8v-2.6h5.4v7.1h0.9v2.6H93.9z M99.3,196.1h-4.6v-3.5h4.6V196.1z"/>
	<path class="st4" d="M111.4,203H105c0.2,1.1,0.7,1.6,1.7,1.6c0.3,0,0.6-0.1,0.8-0.2c0.2-0.1,0.5-0.3,0.7-0.7h3.2
		c-0.2,0.5-0.4,0.8-0.5,1.1c-0.2,0.3-0.4,0.5-0.6,0.7c-0.4,0.4-1,0.8-1.7,1c-0.7,0.2-1.4,0.4-2.3,0.4c-1.9,0-3.3-0.4-4.2-1.3
		c-0.5-0.5-0.9-1.1-1.2-1.7c-0.3-0.7-0.4-1.4-0.4-2.1c0-0.7,0.1-1.4,0.4-2c0.3-0.6,0.7-1.1,1.1-1.6c0.5-0.4,1.1-0.8,1.8-1
		c0.7-0.2,1.4-0.4,2.2-0.4c0.7,0,1.3,0.1,1.9,0.3c0.6,0.2,1.1,0.5,1.6,0.9c0.3,0.2,0.6,0.5,0.8,0.8c0.2,0.3,0.5,0.7,0.6,1
		c0.2,0.4,0.3,0.8,0.4,1.2c0.1,0.4,0.1,0.8,0.1,1.2L111.4,203z M107.4,201.2c0-1.1-0.4-1.7-1.2-1.7c-0.5,0-0.9,0.3-1.1,0.8
		c0,0.1-0.1,0.2-0.1,0.4c0,0.1,0,0.3,0,0.6v0.2h2.4V201.2z"/>
	<polygon class="st4" points="127.3,199.7 125.1,206.8 121.3,206.8 119.7,202.3 117.8,206.8 114.2,206.8 112.4,199.7 111.8,199.7 
		111.8,197.1 117.3,197.1 117.3,199.7 116.6,199.7 117,202.7 117.1,202.7 119.2,197.1 122,197.1 123.7,202.7 123.7,202.7 
		124.6,199.7 124,199.7 124,197.1 127.7,197.1 127.7,199.7 	"/>
</g>
</svg>
