<svg xmlns="http://www.w3.org/2000/svg" fill="none" viewBox="0 0 32 32"><path fill="#fff" d="M0 0h32v32H0z"/><path fill="#B4B4B4" fill-rule="evenodd" d="M22.45 12.204a5.8 5.8 0 0 1 1.169-3.502 5.75 5.75 0 0 0-4.962 5.703 4.893 4.893 0 0 1 4.6 4.91q0 .387-.06.77a5.65 5.65 0 0 0 5.674-2.154 5 5 0 0 1-.732.049 5.733 5.733 0 0 1-5.689-5.776" clip-rule="evenodd"/><path fill="#969696" fill-rule="evenodd" d="M18.412 21.423H7.11a2.107 2.107 0 1 1 1.797-3.163l1.596-.94a3.95 3.95 0 0 0-1.172-1.28 3.494 3.494 0 0 1 6.927.714c.002.729-.22 1.44-.634 2.039h2.09a5.4 5.4 0 0 0 .365-1.56 2 2 0 0 1 .33-.028 2.108 2.108 0 0 1 0 4.215m0-6.088q-.245 0-.488.032a5.324 5.324 0 0 0-10.333 0 3.981 3.981 0 1 0-.478 7.934h11.302a3.981 3.981 0 1 0 0-7.962" clip-rule="evenodd"/></svg>