<svg xmlns="http://www.w3.org/2000/svg" fill="none" viewBox="0 0 32 32"><path fill="#fff" d="M0 0h32v32H0z"/><g fill-rule="evenodd" clip-path="url(#a)" clip-rule="evenodd"><path fill="#6DB1DE" d="M11.9 17.865 8.976 23.64h3.355l-2.437 6.234.221.126 5.485-8.146h-3.271l2.572-3.99z"/><path fill="#FDC400" d="M17.579 9.19h2.004V5.024h-2.004zm0 18.496h2.004V23.52h-2.004zm8.183-10.33h4.175v-2h-4.175zm-2.371 9.312-2.088-3.608 1.736-.999 2.088 3.608zm1.91-13.03L24.3 11.907l3.616-2.084 1.001 1.733-3.614 2.082Zm2.614 9.25-3.616-2.083 1.001-1.733 3.616 2.083-1.002 1.732ZM23.04 10.65l-1.736-1 2.087-3.608 1.737 1z"/><path fill="#000" d="M18.585 12.106q-.263 0-.525.033a5.807 5.807 0 0 0-11.219 0 4.249 4.249 0 1 0-.525 8.465h2.663v-2H6.306A2.25 2.25 0 1 1 8.26 15.23l1.734-1.004A4.25 4.25 0 0 0 8.72 12.86a3.8 3.8 0 0 1 7.525.762 3.76 3.76 0 0 1-.688 2.176h2.268a5.8 5.8 0 0 0 .401-1.663q.178-.029.358-.029a2.25 2.25 0 1 1 0 4.499H15.91v2h2.676a4.25 4.25 0 0 0 0-8.499Z"/></g><defs><clipPath id="a"><path fill="#fff" d="M2 2h28v28H2z"/></clipPath></defs></svg>