<svg xmlns="http://www.w3.org/2000/svg" fill="none" viewBox="0 0 32 32"><path fill="#fff" d="M0 0h32v32H0z"/><path fill="#FDC400" fill-rule="evenodd" d="M17.456 9.374h1.86V5.52h-1.86v3.853Zm0 17.104h1.86v-3.853h-1.86zm7.599-9.554h3.877v-1.85h-3.877zm-2.202 8.613L20.914 22.2l1.612-.925 1.94 3.336-1.613.925Zm1.774-12.05-.93-1.601 3.356-1.927.93 1.602zm2.426 8.552-3.357-1.925.93-1.602 3.358 1.926-.93 1.6Zm-4.526-11.316L20.915 9.8l1.938-3.337 1.612.925z" clip-rule="evenodd"/><path fill="#969696" fill-rule="evenodd" d="M18.39 18.08H6.99a2.08 2.08 0 1 1 1.814-3.122l1.61-.928a3.9 3.9 0 0 0-1.182-1.263 3.53 3.53 0 0 1 6.988.705 3.47 3.47 0 0 1-.64 2.012h2.107c.2-.49.325-1.009.372-1.537a2.08 2.08 0 1 1 .332 4.135m0-6.013q-.244 0-.487.032a5.398 5.398 0 0 0-10.418 0 3.93 3.93 0 1 0-.487 7.827H18.39a3.928 3.928 0 1 0 0-7.859Z" clip-rule="evenodd"/></svg>