<svg xmlns="http://www.w3.org/2000/svg" fill="none" viewBox="0 0 32 32"><path fill="#fff" d="M0 0h32v32H0z"/><path fill="#3789C6" fill-rule="evenodd" d="M17.93 21.623q-.002-.036.007-.073l.344-3.962-3.48 1.993a2.09 2.09 0 1 0 3.128 2.05z" clip-rule="evenodd"/><path fill="#000" fill-rule="evenodd" d="M22.186 12.804a4 4 0 0 0-.53.034 5.84 5.84 0 0 0-5.64-4.314 5.84 5.84 0 0 0-5.643 4.314 4.256 4.256 0 1 0-.53 8.473h2.687v-2H9.843a2.253 2.253 0 1 1 1.962-3.381l1.743-1.005a4.3 4.3 0 0 0-1.277-1.367 3.823 3.823 0 0 1 7.563.763 3.76 3.76 0 0 1-.693 2.179h2.28a5.7 5.7 0 0 0 .404-1.663 2.253 2.253 0 1 1 .36 4.473h-2.687v2.001h2.688a4.253 4.253 0 1 0 0-8.507" clip-rule="evenodd"/></svg>