<svg xmlns="http://www.w3.org/2000/svg" data-name="Layer 1" preserveAspectRatio="xMinYMid" viewBox="0 0 677.74 172.69"><defs><clipPath id="a"><rect width="172.69" height="172.69" fill="none" rx="15.81"/></clipPath></defs><path fill="#5b5a5a" d="M211.65 67.28a21.14 21.14 0 0 1 6.2-7.71 26.4 26.4 0 0 1 9.21-4.42 44.8 44.8 0 0 1 11.7-1.43 51 51 0 0 1 9.7.93 23.5 23.5 0 0 1 8.71 3.49 19.1 19.1 0 0 1 6.28 7.21q2.43 4.64 2.43 12.06v39.1q0 5.43 5.28 5.43a7 7 0 0 0 2.85-.57v7.56c-1.05.19-2 .33-2.78.43a29 29 0 0 1-3.07.14 13.6 13.6 0 0 1-5.5-.93 7.3 7.3 0 0 1-3.21-2.64 9.8 9.8 0 0 1-1.49-4.06 35 35 0 0 1-.36-5.21h-.29a62 62 0 0 1-4.92 6.35 24.8 24.8 0 0 1-5.57 4.64 25.7 25.7 0 0 1-7 2.85 38.7 38.7 0 0 1-9.35 1 37.2 37.2 0 0 1-9.63-1.21 21.7 21.7 0 0 1-7.85-3.86 18.4 18.4 0 0 1-5.28-6.7 22.35 22.35 0 0 1-1.93-9.64c0-5.14 1.15-9.15 3.43-12.06a21.57 21.57 0 0 1 9.06-6.63A52.3 52.3 0 0 1 231 88.19q7.06-.93 14.35-1.79c1.9-.19 3.56-.43 5-.71a8.76 8.76 0 0 0 3.57-1.5 6.9 6.9 0 0 0 2.21-2.93 12.6 12.6 0 0 0 .79-4.85 16.4 16.4 0 0 0-1.5-7.49 11.8 11.8 0 0 0-4.14-4.64 16.6 16.6 0 0 0-6.14-2.35 42 42 0 0 0-7.49-.65q-8.57 0-14 4.07t-5.71 13.06h-9a30 30 0 0 1 2.71-11.13m45 22a5.2 5.2 0 0 1-3.28 2.28 33 33 0 0 1-4.28 1q-5.72 1-11.78 1.78a64 64 0 0 0-11.06 2.36 21.5 21.5 0 0 0-8.2 4.49c-2.14 2-3.22 4.74-3.22 8.35a13.2 13.2 0 0 0 1.36 6.07 14.5 14.5 0 0 0 3.64 4.56 15.9 15.9 0 0 0 5.28 2.93 19.1 19.1 0 0 0 6.14 1 31 31 0 0 0 9.84-1.57 24.2 24.2 0 0 0 8.21-4.53 21.71 21.71 0 0 0 7.64-17V89.26ZM292.71 55.86v12.7h.29a21.55 21.55 0 0 1 9.13-10.77 26.8 26.8 0 0 1 14.42-4.07 36.3 36.3 0 0 1 12.91 2 20.4 20.4 0 0 1 8.35 5.64 21 21 0 0 1 4.43 8.91 50.8 50.8 0 0 1 1.28 11.85v47.38h-9V83.55a42.4 42.4 0 0 0-.86-8.78 18.6 18.6 0 0 0-3-7.06 14.54 14.54 0 0 0-5.77-4.71 21.25 21.25 0 0 0-9.07-1.72 22.9 22.9 0 0 0-9.63 1.93 20.9 20.9 0 0 0-7.13 5.28 24.3 24.3 0 0 0-4.57 8 32.6 32.6 0 0 0-1.78 10.07v43h-9v-73.7ZM362.35 67.28a21.1 21.1 0 0 1 6.21-7.71 26.1 26.1 0 0 1 9.2-4.42 44.8 44.8 0 0 1 11.7-1.43 51 51 0 0 1 9.71.93 23.5 23.5 0 0 1 8.7 3.49 19.1 19.1 0 0 1 6.28 7.21q2.43 4.64 2.43 12.06v39.1q0 5.43 5.28 5.43a7 7 0 0 0 2.85-.57v7.56c-1 .19-2 .33-2.78.43a29 29 0 0 1-3.07.14 13.6 13.6 0 0 1-5.49-.93 7.3 7.3 0 0 1-3.21-2.64 9.7 9.7 0 0 1-1.5-4.06 35 35 0 0 1-.36-5.21h-.3a62 62 0 0 1-4.93 6.35 24.7 24.7 0 0 1-5.56 4.64 26 26 0 0 1-7 2.85 38.6 38.6 0 0 1-9.34 1 37.4 37.4 0 0 1-9.64-1.21 21.8 21.8 0 0 1-7.85-3.86 18.46 18.46 0 0 1-5.28-6.7 22.5 22.5 0 0 1-1.92-9.64c0-5.14 1.14-9.15 3.42-12.06a21.46 21.46 0 0 1 9.1-6.63 52 52 0 0 1 12.7-3.21q7.07-.93 14.35-1.79c1.9-.19 3.57-.43 5-.71a8.76 8.76 0 0 0 3.57-1.5 6.9 6.9 0 0 0 2.21-2.93 12.6 12.6 0 0 0 .79-4.85 16.4 16.4 0 0 0-1.5-7.49 11.9 11.9 0 0 0-4.12-4.64 16.6 16.6 0 0 0-6.14-2.35 42 42 0 0 0-7.49-.65q-8.56 0-14 4.07t-5.71 13.06h-9a29.8 29.8 0 0 1 2.69-11.13m44.95 22a5.14 5.14 0 0 1-3.3 2.26 33 33 0 0 1-4.28 1q-5.72 1-11.78 1.78a64 64 0 0 0-11.06 2.36 21.5 21.5 0 0 0-8.2 4.49c-2.14 2-3.21 4.74-3.21 8.35a13.2 13.2 0 0 0 1.35 6.07 14.8 14.8 0 0 0 3.64 4.56 15.9 15.9 0 0 0 5.28 2.93 19.4 19.4 0 0 0 6.14 1 31.1 31.1 0 0 0 9.85-1.57 24.2 24.2 0 0 0 8.2-4.57 21.71 21.71 0 0 0 7.64-17V89.26ZM443.69 27.6v101.9h-9V27.6ZM462.25 55.86l24.26 62.8 22.69-62.8h9l-32 84.77a83 83 0 0 1-3.71 7.78 17.8 17.8 0 0 1-3.78 4.85 12.6 12.6 0 0 1-4.85 2.57 26.7 26.7 0 0 1-7.07.79l-4.21-.22a8.8 8.8 0 0 1-2.64-.5v-7.56c1.05.19 2.07.36 3.07.5a22.5 22.5 0 0 0 3.07.21 12.2 12.2 0 0 0 4.92-.85 10.5 10.5 0 0 0 3.36-2.36 13.3 13.3 0 0 0 2.42-3.64q1-2.13 2.14-4.71l3.14-8.27-29.4-73.36ZM569.42 70.2a14.6 14.6 0 0 0-4.21-5.06 17.6 17.6 0 0 0-6.06-2.93 28 28 0 0 0-7.28-.93 29.5 29.5 0 0 0-6.07.65 18.4 18.4 0 0 0-5.63 2.14A12 12 0 0 0 536 68a10.8 10.8 0 0 0-1.57 6 8.4 8.4 0 0 0 1.5 5.06 13.3 13.3 0 0 0 3.78 3.5 23.3 23.3 0 0 0 5 2.35c1.81.62 3.47 1.12 5 1.5l12 2.71a35 35 0 0 1 7.63 2.07 24.6 24.6 0 0 1 6.71 3.93 19.2 19.2 0 0 1 4.78 6 18.1 18.1 0 0 1 1.85 8.42 18.46 18.46 0 0 1-2.68 10.19 22.1 22.1 0 0 1-6.92 6.85 29.6 29.6 0 0 1-9.49 3.78 49.4 49.4 0 0 1-10.42 1.14q-13 0-21-6.14T523 105.67h9q.57 9.14 6.63 13.77t15.06 4.64a33.6 33.6 0 0 0 6.78-.72 21.6 21.6 0 0 0 6.49-2.42 15.7 15.7 0 0 0 4.93-4.35 10.75 10.75 0 0 0 1.92-6.5 10.34 10.34 0 0 0-1.35-5.49 11.8 11.8 0 0 0-3.64-3.71 23.1 23.1 0 0 0-5.21-2.5c-2-.67-3.93-1.24-5.92-1.71L546 94.11a64 64 0 0 1-8.14-2.64 26.3 26.3 0 0 1-6.49-3.71 15.4 15.4 0 0 1-4.37-5.43 17.85 17.85 0 0 1-1.57-7.92 17.7 17.7 0 0 1 2.57-9.56 19.65 19.65 0 0 1 6.5-6.42 29.9 29.9 0 0 1 8.92-3.57 43.4 43.4 0 0 1 9.77-1.14 35.9 35.9 0 0 1 10.35 1.43 23.6 23.6 0 0 1 8.46 4.42 21.7 21.7 0 0 1 5.7 7.43 26.8 26.8 0 0 1 2.43 10.42h-9a16.9 16.9 0 0 0-1.71-7.22M604.81 27.6V42h-9V27.6Zm0 28.26v73.64h-9V55.86ZM664.47 70.2a14.6 14.6 0 0 0-4.21-5.06 17.7 17.7 0 0 0-6.07-2.93 28 28 0 0 0-7.28-.93 29.4 29.4 0 0 0-6.06.65 18.5 18.5 0 0 0-5.64 2.14 12.26 12.26 0 0 0-4.14 3.93 10.8 10.8 0 0 0-1.57 6 8.4 8.4 0 0 0 1.5 5.06 13.3 13.3 0 0 0 3.78 3.5 23.8 23.8 0 0 0 5 2.35q2.7.93 5 1.5l12 2.71a35 35 0 0 1 7.63 2.07 24.6 24.6 0 0 1 6.71 3.93 19.2 19.2 0 0 1 4.78 6 18 18 0 0 1 1.86 8.42 18.5 18.5 0 0 1-2.76 10.19 22.3 22.3 0 0 1-6.92 6.85 29.6 29.6 0 0 1-9.49 3.78 49.4 49.4 0 0 1-10.42 1.14q-13 0-21-6.14t-9.21-19.69h9q.57 9.14 6.64 13.77t15.06 4.64a33.5 33.5 0 0 0 6.77-.72 21.6 21.6 0 0 0 6.5-2.42 15.4 15.4 0 0 0 4.92-4.35 10.7 10.7 0 0 0 1.93-6.5 10.26 10.26 0 0 0-1.36-5.49 11.7 11.7 0 0 0-3.64-3.71 23.1 23.1 0 0 0-5.21-2.5 61 61 0 0 0-5.92-1.71L641 94.11a64 64 0 0 1-8.13-2.64 26.4 26.4 0 0 1-6.5-3.71 15.6 15.6 0 0 1-4.35-5.43 17.85 17.85 0 0 1-1.57-7.92 17.65 17.65 0 0 1 2.5-9.56 19.6 19.6 0 0 1 6.49-6.42 29.9 29.9 0 0 1 8.92-3.57 43.6 43.6 0 0 1 9.78-1.14 35.8 35.8 0 0 1 10.34 1.43 23.6 23.6 0 0 1 8.52 4.42 21.7 21.7 0 0 1 5.74 7.43 26.6 26.6 0 0 1 2.43 10.42h-9a17 17 0 0 0-1.7-7.22"/><g clip-path="url(#a)"><g fill="#d8d8d8" opacity=".8"><path d="M-1.12 166.34h5.99v5.99h-5.99zM6.24 166.34h5.99v5.99H6.24zM13.67 166.34h5.99v5.99h-5.99zM21.03 166.34h5.99v5.99h-5.99zM-1.12 159.04h5.99v5.99h-5.99zM6.24 159.04h5.99v5.99H6.24zM13.67 159.04h5.99v5.99h-5.99zM21.03 159.04h5.99v5.99h-5.99zM-1.14 151.32h5.99v5.99h-5.99zM6.22 151.32h5.99v5.99H6.22zM13.65 151.32h5.99v5.99h-5.99zM21.01 151.32H27v5.99h-5.99zM-1.18 144.02h5.99v5.99h-5.99zM6.18 144.02h5.99v5.99H6.18zM13.61 144.02h5.99v5.99h-5.99zM20.97 144.02h5.99v5.99h-5.99zM-1.18 136.72h5.99v5.99h-5.99zM6.18 136.72h5.99v5.99H6.18zM13.61 136.72h5.99v5.99h-5.99zM20.97 136.72h5.99v5.99h-5.99zM-1.1 129h5.99v5.99H-1.1zM6.26 129h5.99v5.99H6.26zM13.69 129h5.99v5.99h-5.99zM21.05 129h5.99v5.99h-5.99zM-1.14 121.69h5.99v5.99h-5.99zM6.22 121.69h5.99v5.99H6.22zM13.65 121.69h5.99v5.99h-5.99zM21.01 121.69H27v5.99h-5.99zM-1.14 114.39h5.99v5.99h-5.99zM6.22 114.39h5.99v5.99H6.22zM13.65 114.39h5.99v5.99h-5.99zM21.01 114.39H27v5.99h-5.99zM28.51 166.34h5.99v5.99h-5.99zM35.86 166.34h5.99v5.99h-5.99zM43.22 166.34h5.99v5.99h-5.99zM50.66 166.34h5.99v5.99h-5.99zM58.01 166.34H64v5.99h-5.99zM28.51 159.04h5.99v5.99h-5.99zM35.86 159.04h5.99v5.99h-5.99zM43.22 159.04h5.99v5.99h-5.99zM50.66 159.04h5.99v5.99h-5.99zM58.01 159.04H64v5.99h-5.99zM28.53 151.32h5.99v5.99h-5.99zM35.88 151.32h5.99v5.99h-5.99zM43.24 151.32h5.99v5.99h-5.99zM50.68 151.32h5.99v5.99h-5.99zM58.03 151.32h5.99v5.99h-5.99zM28.49 144.02h5.99v5.99h-5.99zM35.84 144.02h5.99v5.99h-5.99zM43.2 144.02h5.99v5.99H43.2zM50.64 144.02h5.99v5.99h-5.99zM58 144.02h5.99v5.99H58zM28.49 136.72h5.99v5.99h-5.99zM35.84 136.72h5.99v5.99h-5.99zM43.2 136.72h5.99v5.99H43.2zM50.64 136.72h5.99v5.99h-5.99zM58 136.72h5.99v5.99H58zM28.53 129h5.99v5.99h-5.99zM35.88 129h5.99v5.99h-5.99zM43.24 129h5.99v5.99h-5.99zM50.68 129h5.99v5.99h-5.99zM58.03 129h5.99v5.99h-5.99zM28.49 121.69h5.99v5.99h-5.99zM35.84 121.69h5.99v5.99h-5.99zM43.2 121.69h5.99v5.99H43.2zM50.64 121.69h5.99v5.99h-5.99zM58 121.69h5.99v5.99H58zM28.49 114.39h5.99v5.99h-5.99zM35.84 114.39h5.99v5.99h-5.99zM43.2 114.39h5.99v5.99H43.2zM50.64 114.39h5.99v5.99h-5.99zM58 114.39h5.99v5.99H58zM65.55 166.34h5.99v5.99h-5.99zM72.91 166.34h5.99v5.99h-5.99zM80.26 166.34h5.99v5.99h-5.99zM87.7 166.34h5.99v5.99H87.7zM95.06 166.34h5.99v5.99h-5.99zM65.55 159.04h5.99v5.99h-5.99zM72.91 159.04h5.99v5.99h-5.99zM80.26 159.04h5.99v5.99h-5.99zM87.7 159.04h5.99v5.99H87.7zM95.06 159.04h5.99v5.99h-5.99zM65.53 151.32h5.99v5.99h-5.99zM72.89 151.32h5.99v5.99h-5.99zM80.25 151.32h5.99v5.99h-5.99zM87.68 151.32h5.99v5.99h-5.99zM95.04 151.32h5.99v5.99h-5.99zM65.49 144.02h5.99v5.99h-5.99zM72.85 144.02h5.99v5.99h-5.99zM80.21 144.02h5.99v5.99h-5.99zM87.64 144.02h5.99v5.99h-5.99zM95 144.02h5.99v5.99H95zM65.49 136.72h5.99v5.99h-5.99zM72.85 136.72h5.99v5.99h-5.99zM80.21 136.72h5.99v5.99h-5.99zM87.64 136.72h5.99v5.99h-5.99zM95 136.72h5.99v5.99H95zM65.57 129h5.99v5.99h-5.99zM72.93 129h5.99v5.99h-5.99zM80.28 129h5.99v5.99h-5.99zM87.72 129h5.99v5.99h-5.99zM95.08 129h5.99v5.99h-5.99zM65.53 121.69h5.99v5.99h-5.99zM72.89 121.69h5.99v5.99h-5.99zM80.25 121.69h5.99v5.99h-5.99zM87.68 121.69h5.99v5.99h-5.99zM95.04 121.69h5.99v5.99h-5.99zM65.53 114.39h5.99v5.99h-5.99zM72.89 114.39h5.99v5.99h-5.99zM80.25 114.39h5.99v5.99h-5.99zM87.68 114.39h5.99v5.99h-5.99zM95.04 114.39h5.99v5.99h-5.99zM102.53 166.34h5.99v5.99h-5.99zM109.89 166.34h5.99v5.99h-5.99zM117.25 166.34h5.99v5.99h-5.99zM124.69 166.34h5.99v5.99h-5.99zM132.04 166.34h5.99v5.99h-5.99zM102.53 159.04h5.99v5.99h-5.99zM109.89 159.04h5.99v5.99h-5.99zM117.25 159.04h5.99v5.99h-5.99zM124.69 159.04h5.99v5.99h-5.99zM132.04 159.04h5.99v5.99h-5.99zM102.55 151.32h5.99v5.99h-5.99zM109.91 151.32h5.99v5.99h-5.99zM117.27 151.32h5.99v5.99h-5.99zM124.7 151.32h5.99v5.99h-5.99zM132.06 151.32h5.99v5.99h-5.99zM102.51 144.02h5.99v5.99h-5.99zM109.87 144.02h5.99v5.99h-5.99zM117.23 144.02h5.99v5.99h-5.99zM124.67 144.02h5.99v5.99h-5.99zM132.02 144.02h5.99v5.99h-5.99zM102.51 136.72h5.99v5.99h-5.99zM109.87 136.72h5.99v5.99h-5.99zM117.23 136.72h5.99v5.99h-5.99zM124.67 136.72h5.99v5.99h-5.99zM132.02 136.72h5.99v5.99h-5.99zM102.55 129h5.99v5.99h-5.99zM109.91 129h5.99v5.99h-5.99zM117.27 129h5.99v5.99h-5.99zM124.7 129h5.99v5.99h-5.99zM132.06 129h5.99v5.99h-5.99zM102.51 121.69h5.99v5.99h-5.99zM109.87 121.69h5.99v5.99h-5.99zM117.23 121.69h5.99v5.99h-5.99zM124.67 121.69h5.99v5.99h-5.99zM132.02 121.69h5.99v5.99h-5.99zM102.51 114.39h5.99v5.99h-5.99zM109.87 114.39h5.99v5.99h-5.99zM117.23 114.39h5.99v5.99h-5.99zM124.67 114.39h5.99v5.99h-5.99zM132.02 114.39h5.99v5.99h-5.99zM102.55 106.67h5.99v5.99h-5.99zM109.91 106.67h5.99v5.99h-5.99zM117.27 106.67h5.99v5.99h-5.99zM124.7 106.67h5.99v5.99h-5.99zM132.06 106.67h5.99v5.99h-5.99zM102.51 99.37h5.99v5.99h-5.99zM109.87 99.37h5.99v5.99h-5.99zM117.23 99.37h5.99v5.99h-5.99zM124.67 99.37h5.99v5.99h-5.99zM132.02 99.37h5.99v5.99h-5.99zM102.51 92.07h5.99v5.99h-5.99zM109.87 92.07h5.99v5.99h-5.99zM117.23 92.07h5.99v5.99h-5.99zM124.67 92.07h5.99v5.99h-5.99zM132.02 92.07h5.99v5.99h-5.99zM65.57 106.67h5.99v5.99h-5.99zM72.93 106.67h5.99v5.99h-5.99zM80.28 106.67h5.99v5.99h-5.99zM87.72 106.67h5.99v5.99h-5.99zM95.08 106.67h5.99v5.99h-5.99zM65.53 99.37h5.99v5.99h-5.99zM72.89 99.37h5.99v5.99h-5.99zM80.25 99.37h5.99v5.99h-5.99zM87.68 99.37h5.99v5.99h-5.99zM95.04 99.37h5.99v5.99h-5.99zM65.53 92.07h5.99v5.99h-5.99zM72.89 92.07h5.99v5.99h-5.99zM80.25 92.07h5.99v5.99h-5.99zM95.04 92.07h5.99v5.99h-5.99zM65.47 84.35h5.99v5.99h-5.99zM72.83 84.35h5.99v5.99h-5.99zM65.43 77.04h5.99v5.99h-5.99zM28.53 106.67h5.99v5.99h-5.99zM35.88 106.67h5.99v5.99h-5.99zM43.24 106.67h5.99v5.99h-5.99zM50.68 106.67h5.99v5.99h-5.99zM58.03 106.67h5.99v5.99h-5.99zM28.49 99.37h5.99v5.99h-5.99zM35.84 99.37h5.99v5.99h-5.99zM43.2 99.37h5.99v5.99H43.2zM50.64 99.37h5.99v5.99h-5.99zM58 99.37h5.99v5.99H58zM13.81 106.67h5.99v5.99h-5.99zM21.17 106.67h5.99v5.99h-5.99zM43.2 92.07h5.99v5.99H43.2zM50.64 92.07h5.99v5.99h-5.99zM58 92.07h5.99v5.99H58zM102.55 84.35h5.99v5.99h-5.99zM109.91 84.35h5.99v5.99h-5.99zM117.27 84.35h5.99v5.99h-5.99zM124.7 84.35h5.99v5.99h-5.99zM132.06 84.35h5.99v5.99h-5.99zM109.87 77.04h5.99v5.99h-5.99zM117.23 77.04h5.99v5.99h-5.99zM124.67 77.04h5.99v5.99h-5.99zM132.02 77.04h5.99v5.99h-5.99zM124.67 69.74h5.99v5.99h-5.99zM132.02 69.74h5.99v5.99h-5.99zM50.54 84.35h5.99v5.99h-5.99zM57.9 84.35h5.99v5.99H57.9zM139.54 166.34h5.99v5.99h-5.99zM146.9 166.34h5.99v5.99h-5.99zM154.25 166.34h5.99v5.99h-5.99zM161.69 166.34h5.99v5.99h-5.99zM169.05 166.34h5.99v5.99h-5.99zM139.54 159.04h5.99v5.99h-5.99zM146.9 159.04h5.99v5.99h-5.99zM154.25 159.04h5.99v5.99h-5.99zM161.69 159.04h5.99v5.99h-5.99zM169.05 159.04h5.99v5.99h-5.99zM139.56 151.32h5.99v5.99h-5.99zM146.92 151.32h5.99v5.99h-5.99zM154.27 151.32h5.99v5.99h-5.99zM161.71 151.32h5.99v5.99h-5.99zM169.07 151.32h5.99v5.99h-5.99zM139.52 144.02h5.99v5.99h-5.99zM146.88 144.02h5.99v5.99h-5.99zM154.24 144.02h5.99v5.99h-5.99zM161.67 144.02h5.99v5.99h-5.99zM169.03 144.02h5.99v5.99h-5.99zM139.52 136.72h5.99v5.99h-5.99zM146.88 136.72h5.99v5.99h-5.99zM154.24 136.72h5.99v5.99h-5.99zM161.67 136.72h5.99v5.99h-5.99zM169.03 136.72h5.99v5.99h-5.99zM139.56 129h5.99v5.99h-5.99zM146.92 129h5.99v5.99h-5.99zM154.27 129h5.99v5.99h-5.99zM161.71 129h5.99v5.99h-5.99zM169.07 129h5.99v5.99h-5.99zM139.52 121.69h5.99v5.99h-5.99zM146.88 121.69h5.99v5.99h-5.99zM154.24 121.69h5.99v5.99h-5.99zM161.67 121.69h5.99v5.99h-5.99zM169.03 121.69h5.99v5.99h-5.99zM139.52 114.39h5.99v5.99h-5.99zM146.88 114.39h5.99v5.99h-5.99zM154.24 114.39h5.99v5.99h-5.99zM161.67 114.39h5.99v5.99h-5.99zM169.03 114.39h5.99v5.99h-5.99zM139.56 106.67h5.99v5.99h-5.99zM146.92 106.67h5.99v5.99h-5.99zM154.27 106.67h5.99v5.99h-5.99zM161.71 106.67h5.99v5.99h-5.99zM169.07 106.67h5.99v5.99h-5.99zM139.52 99.37h5.99v5.99h-5.99zM146.88 99.37h5.99v5.99h-5.99zM154.24 99.37h5.99v5.99h-5.99zM161.67 99.37h5.99v5.99h-5.99zM169.03 99.37h5.99v5.99h-5.99zM139.52 92.07h5.99v5.99h-5.99zM146.88 92.07h5.99v5.99h-5.99zM154.24 92.07h5.99v5.99h-5.99zM161.67 92.07h5.99v5.99h-5.99zM169.03 92.07h5.99v5.99h-5.99zM146.92 84.35h5.99v5.99h-5.99zM154.27 84.35h5.99v5.99h-5.99zM161.71 84.35h5.99v5.99h-5.99zM169.07 84.35h5.99v5.99h-5.99zM146.88 77.04h5.99v5.99h-5.99zM154.24 77.04h5.99v5.99h-5.99zM161.67 77.04h5.99v5.99h-5.99zM169.03 77.04h5.99v5.99h-5.99zM161.67 69.74h5.99v5.99h-5.99zM169.03 69.74h5.99v5.99h-5.99zM139.49 84.35h5.99v5.99h-5.99zM139.45 77.04h5.99v5.99h-5.99zM139.6 69.74h5.99v5.99h-5.99zM139.56 62.44h5.99v5.99h-5.99zM132.04 62.44h5.99v5.99h-5.99zM132 55.14h5.99v5.99H132zM124.69 62.44h5.99v5.99h-5.99zM146.88 69.74h5.99v5.99h-5.99zM169.05 62.44h5.99v5.99h-5.99z"/></g><path fill="#bb1a1b" d="M-8.46 112.66h20.62v-7.31h14.88l-.08-7.3h14.87v-7.72h7.4v-7.3h14.65l.14-7.14h8.81v7.14h7.38l.07 7.3h7.44v7.72h5.98v-7.72h7.29v-7.3h7.55v-7.3h14.68l.03-14.61h7.44v-6.71h8.8v6.71h7.39l.04 7.3h7.32l.03 7.31h5.99v-7.31h7.43l-.03-7.3h7.35l.06-132.69H-8.44z"/><circle cx="101.6" cy="69.08" r="53.94" fill="none" stroke="#961914" stroke-miterlimit="10" stroke-width="13"/><path fill="#961914" stroke="#961914" stroke-miterlimit="10" stroke-width="9" d="m136.81 109.93 60.58 65s19.28.06 19-16.33l-73.95-54.3"/><rect width="172.69" height="172.69" x="-3" y=".99" fill="none" rx="23.69"/><rect width="172.69" height="172.69" x="-3" fill="none" rx="15.81"/><path fill="none" d="M2.45 17.69h172.69v172.69H2.45z"/><path fill="none" d="M3.67-3.3h156.88a15.81 15.81 0 0 1 15.81 15.81v141.08a15.81 15.81 0 0 1-15.81 15.81H19.47a15.81 15.81 0 0 1-15.8-15.81z"/><path fill="none" d="M3.67-3.3h172.69v172.69H3.67z"/><path fill="none" d="M12.45-3.3h172.69v172.69H12.45z"/></g></svg>