<svg width="108" height="30" viewBox="0 0 108 30" fill="none" xmlns="http://www.w3.org/2000/svg">
<g id="bbc-logo">
<path id="Vector" d="M0 0V30H30.7792V0H0ZM21.4613 21.1758C20.9323 21.9023 20.1868 22.4531 19.213 22.8516C18.2391 23.25 17.0728 23.4375 15.7022 23.4375H8.80093V6.5625H15.2934C17.2051 6.5625 18.696 6.9375 19.742 7.6875C20.788 8.4375 21.317 9.50391 21.317 10.9102C21.317 11.707 21.1246 12.4102 20.7519 12.9961C20.3792 13.582 19.8141 14.0508 19.0807 14.4023C20.1027 14.7305 20.8842 15.2578 21.4252 15.9727C21.9663 16.6875 22.2428 17.5547 22.2428 18.5859C22.2548 19.582 21.9903 20.4492 21.4613 21.1758ZM17.0608 12.9258C17.5417 12.5391 17.7822 12 17.7822 11.3086C17.7822 9.97266 16.8444 9.30469 14.9808 9.30469H12.3237V13.5H14.9808C15.8946 13.5 16.5799 13.3125 17.0608 12.9258ZM15.4257 16.1484H12.3237V20.707H15.3896C16.4356 20.707 17.2532 20.5195 17.8183 20.1328C18.3834 19.7461 18.6599 19.1953 18.6599 18.4688C18.6479 16.9102 17.5778 16.1484 15.4257 16.1484Z" fill="black"/>
<path id="Vector_2" d="M38.474 0V30H69.2533V0H38.474ZM59.9353 21.1758C59.4063 21.9023 58.6609 22.4531 57.687 22.8516C56.7131 23.25 55.5469 23.4375 54.1762 23.4375H47.275V6.5625H53.7675C55.6791 6.5625 57.17 6.9375 58.216 7.6875C59.262 8.4375 59.791 9.50391 59.791 10.9102C59.791 11.707 59.5987 12.4102 59.226 12.9961C58.8532 13.582 58.2882 14.0508 57.5547 14.4023C58.5767 14.7305 59.3582 15.2578 59.8993 15.9727C60.4403 16.6875 60.7168 17.5547 60.7168 18.5859C60.7289 19.582 60.4643 20.4492 59.9353 21.1758ZM55.5349 12.9258C56.0158 12.5391 56.2562 12 56.2562 11.3086C56.2562 9.97266 55.3184 9.30469 53.4549 9.30469H50.7977V13.5H53.4549C54.3686 13.5 55.0539 13.3125 55.5349 12.9258ZM53.8997 16.1484H50.7977V20.707H53.8636C54.9097 20.707 55.7272 20.5195 56.2923 20.1328C56.8574 19.7461 57.1339 19.1953 57.1339 18.4688C57.1219 16.9102 56.0519 16.1484 53.8997 16.1484Z" fill="black"/>
<path id="Vector_3" d="M76.9481 30H107.727V0H76.9481V30ZM99.0586 22.3711C98.3372 22.7578 97.5076 23.0625 96.5698 23.2852C95.62 23.5078 94.6341 23.625 93.5881 23.625C92.2054 23.625 90.955 23.4258 89.8489 23.0391C88.7428 22.6406 87.805 22.0781 87.0355 21.3398C86.266 20.6016 85.6889 19.6992 85.2801 18.6211C84.8713 17.5547 84.6669 16.3477 84.6669 15C84.6669 13.6875 84.8833 12.5039 85.3041 11.4492C85.7249 10.3945 86.3381 9.49219 87.1317 8.73047C87.9252 7.98047 88.887 7.39453 90.0052 6.99609C91.1233 6.59766 92.3737 6.39844 93.7564 6.39844C94.7182 6.39844 95.62 6.49219 96.4857 6.69141C97.3393 6.87891 98.1328 7.16016 98.8662 7.53516V10.8164C98.1929 10.3828 97.4715 10.0547 96.69 9.83203C95.9085 9.60937 95.091 9.49219 94.2253 9.49219C93.035 9.49219 92.0251 9.70312 91.1835 10.1367C90.3418 10.5703 89.7046 11.1914 89.2477 12.0117C88.8029 12.832 88.5744 13.8281 88.5744 15C88.5744 16.1719 88.7908 17.168 89.2237 18C89.6565 18.8203 90.2817 19.4531 91.0993 19.8867C91.9169 20.3203 92.9148 20.5312 94.093 20.5312C95.8845 20.5312 97.5437 20.0742 99.0586 19.1719V22.3711Z" fill="black"/>
</g>
</svg>
