<svg xmlns="http://www.w3.org/2000/svg" width="154" height="33" fill="none" viewBox="0 0 154 33"><rect width="132" height="33" x="153.266" y="33" fill="#20C" rx="16.5" transform="rotate(-180 153.266 33)"/><rect width="33" height="33" x="33" y="33" fill="#0F0" rx="16.5" transform="rotate(-180 33 33)"/><rect width="33" height="33" x="54.266" y="33" fill="navy" rx="16.5" style="mix-blend-mode:multiply" transform="rotate(-180 54.266 33)"/><g clip-path="url(#a)"><path fill="#fff" d="M83.21 9.533v13.934H69.492V9.533zm-17.147 0v13.934H52.346V9.533zm-17.147 0v13.934H35.2V9.533zm28.064 2.965a4.7 4.7 0 0 0-1.672.279 3.6 3.6 0 0 0-1.28.806 3.5 3.5 0 0 0-.815 1.262 4.6 4.6 0 0 0-.286 1.65 4.9 4.9 0 0 0 .272 1.683c.167.475.435.906.785 1.263.355.353.783.622 1.252.79.535.19 1.1.282 1.666.273.447.003.894-.05 1.329-.155.387-.09.76-.233 1.11-.424v-1.497c-.662.42-1.429.64-2.21.634-.462.014-.92-.089-1.334-.3a2 2 0 0 1-.838-.876 3.1 3.1 0 0 1-.286-1.393c-.015-.48.088-.956.298-1.386.193-.373.493-.677.86-.871.421-.212.887-.315 1.356-.301.372-.002.743.05 1.1.156.344.101.672.255.971.456v-1.523a4.5 4.5 0 0 0-1.061-.392 5.3 5.3 0 0 0-1.217-.134m-17.88.083h-2.896v7.838h3.074a4 4 0 0 0 1.563-.274c.4-.157.748-.427 1.002-.779.24-.354.362-.776.351-1.206a2 2 0 0 0-.362-1.21 2.06 2.06 0 0 0-1.044-.73c.305-.14.563-.366.743-.652.173-.293.26-.629.252-.97a1.76 1.76 0 0 0-.165-.839 1.74 1.74 0 0 0-.538-.657 3.28 3.28 0 0 0-1.983-.523zm-17.147 0h-2.896v7.838h3.074a4 4 0 0 0 1.563-.274c.4-.157.748-.427 1.002-.779.24-.354.363-.776.352-1.206a2 2 0 0 0-.362-1.21 2.06 2.06 0 0 0-1.044-.73c.304-.14.563-.366.743-.652.173-.293.26-.629.252-.97a1.77 1.77 0 0 0-.165-.839 1.74 1.74 0 0 0-.538-.657 3.28 3.28 0 0 0-1.982-.523zm17.199 4.45q1.437 0 1.437 1.075a.9.9 0 0 1-.377.772 1.85 1.85 0 0 1-1.081.27h-1.364v-2.116zm-17.147 0q1.438 0 1.438 1.075a.9.9 0 0 1-.378.772 1.85 1.85 0 0 1-1.08.27H40.62v-2.116zm16.947-3.178q1.249 0 1.25.928a.93.93 0 0 1-.32.751c-.27.197-.599.292-.93.269h-1.185v-1.949zm-17.146 0q1.248 0 1.248.928a.93.93 0 0 1-.32.751 1.4 1.4 0 0 1-.929.269H40.62v-1.949z"/></g><path fill="#fff" d="M99.116 11.732a291 291 0 0 1-1.816 5.14A346 346 0 0 1 95.416 22h-2.25a491 491 0 0 1-1.898-5.126 387 387 0 0 1-1.803-5.14h2.29q.624 2.01 1.261 4.006.637 1.995 1.302 3.991.663-1.995 1.3-3.991.639-1.996 1.262-4.007zM100.301 11.732h6.669v1.838h-4.582v2.226h4.067v1.838h-4.067v2.527h4.839V22h-6.926zM110.767 18.266v3.733h-2.061V11.732h3.538q1.913 0 2.928.848 1.03.846 1.031 2.426 0 1.02-.461 1.738-.448.718-1.288 1.105.61 1.02 1.206 2.054.597 1.02 1.193 2.096h-2.399a104 104 0 0 0-2.02-3.733h-1.667m0-1.738h1.355q.963 0 1.464-.359.502-.372.502-1.163 0-.79-.502-1.163-.487-.373-1.45-.373h-1.369zM118.052 11.732h2.088V22h-2.088zM122.196 11.732h6.465v1.838h-4.378v2.528h3.863v1.838h-3.863v4.063h-2.087zM134.952 18.108v3.891h-2.088v-3.891a163.155 163.155 0 0 1-3.633-6.375h2.373q.555 1.134 1.138 2.268.597 1.134 1.193 2.24.61-1.12 1.193-2.24.584-1.134 1.152-2.269h2.318a220 220 0 0 1-1.789 3.203 165 165 0 0 1-1.857 3.173"/><defs><clipPath id="a"><path fill="#fff" d="M35.2 9.533h48.01v13.933H35.2z"/></clipPath></defs></svg>