<svg xmlns="http://www.w3.org/2000/svg" data-name="Layer 1" viewBox="0 0 168.6 264.91"><path d="M115.88 288.51a255 255 0 0 1-32.23-17.77l-1.47-1 1.58-.78c53.92-26.36 79.84-41.8 79.84-104.1V28h35v145.9c0 70.16-42.26 96-81.87 114.6l-.43.2Zm-57.35-39.87a106 106 0 0 1-16.66-27.86l-.36-.9.88-.39c54.06-24.36 56.71-27.61 56.71-69.59V58.8H34V28h100.1v130.6c0 48-11.82 62.37-74.39 90.31l-.7.31Z" style="stroke:#fff;stroke-miterlimit:10;stroke-width:2px" transform="translate(-32 -26)"/><path d="M197.6 29v144.9c0 68.4-39.9 94.2-81.3 113.7a252 252 0 0 1-32.1-17.7c54-26.4 80.4-42.3 80.4-105V29h33m-64.5 0v129.6c0 47.7-12 61.8-73.8 89.4a105.2 105.2 0 0 1-16.5-27.6c54.6-24.6 57.3-28.5 57.3-70.5V57.8H35V29h98.1m66.5-2h-37v137.9c0 61.71-25.74 77-79.28 103.2l-3.17 1.55 3 1.93a256 256 0 0 0 32.35 17.84l.85.39.84-.4C157 270.62 199.6 244.65 199.6 173.9Zm-64.5 0H33v32.8h65.1v90.1c0 40.33-1.3 44-56.12 68.68l-1.76.79.78 1.78a106.8 106.8 0 0 0 16.81 28.13l1 1.17 1.39-.62c29-12.93 49.22-23.75 60.79-37.72 11.82-14.25 14.19-31 14.19-53.51V27Z" style="stroke:#fff;stroke-miterlimit:10;stroke-width:2px;fill:#fff" transform="translate(-32 -26)"/></svg>