<svg xmlns="http://www.w3.org/2000/svg" width="257.308" height="330.623" viewBox="0 0 68.079 87.477"><defs><linearGradient id="a" x1="0" x2="1" y1="0" y2="0" gradientTransform="rotate(90 -221.543 519.338)scale(56.94802)" gradientUnits="userSpaceOnUse" spreadMethod="pad"><stop offset="0" style="stop-opacity:1;stop-color:#db2932"/><stop offset=".458" style="stop-opacity:1;stop-color:#d9292f"/><stop offset=".5" style="stop-opacity:1;stop-color:#d9292f"/><stop offset=".899" style="stop-opacity:1;stop-color:#ee272b"/><stop offset="1" style="stop-opacity:1;stop-color:#ee272b"/></linearGradient></defs><path d="M269.3 769.367c0-15.683 12.787-28.469 28.469-28.469 15.679 0 28.479 12.786 28.479 28.469 0 15.68-12.8 28.478-28.479 28.478-15.682 0-28.469-12.798-28.469-28.478" style="fill:url(#a);stroke:none" transform="matrix(1.19547 0 0 -1.19547 -321.94 964.695)"/><path d="M0 0c.301-.668 1.903-1.647 2.615-2.571.29-.367.401-.746.401-1.068 0-.835-.679-.98-1.336-1.158-1.09-.323-2.27-.456-2.893-.356-.557.089-1.402.568-1.325 1.681-.69-.301-1.068-1.202-.923-2.015.244-1.324 1.58-1.369 2.704-1.324 1.202.045 2.616.311 3.595.679 1.569.601 2.182 1.914 2.059 2.949-.111.857-.779 1.346-1.547 2.103-.479.49.067.757-.256 1.069-.278.289-.801.679-1.169.924-.278.2-.645.378-1.001.356C.601 1.246-.178.389 0 0" style="fill:#fff;fill-opacity:1;fill-rule:nonzero;stroke:none" transform="matrix(1.19547 0 0 -1.19547 14.66 28.166)"/><path d="M0 0c-.69-1.303-1.647-3.017-2.716-4.175-1.38-1.479-3.617-2.67-5.73-2.382-1.147.156-1.916.291-2.961.079.344.779.267 2.158.355 3.128.156 1.658.746 2.782 1.692 3.805 1.436 1.548 2.66 2.393 4.563 3.239l-.167.579.356.467 1.993-1.513-.435-.479C-4.129 2.459-6.076 1.369-6.89.623-8.08-.479-9.07-2.349-8.057-3.472c.556-.636 1.346-.57 2.169-.279 1.214.422 2.884 1.881 3.684 3.272.39.69.6 1.391.512 2.037l.389.566L.868.588.511.043Zm-11.942-10.006a.83.83 0 0 0-.823.834c0 .457.367.836.823.836a.834.834 0 1 0 0-1.67m-6.366-2.181-.178.601.312.389-1.67 1.971-2.381-1.247-2.226 1.347-1.458-1.781.268-.29-.156-.667-3.149.767.21.769.679.011 4.519 5.375-.412.489.012.658 3.927-.012.011-.49-.344-.378 4.941-5.809h.567l.201-.758zm-11.106 8.358-.713.022-5.765-2.838.223-.591-.468-.633-2.804 2.126.423.545.645.122.357 3.395-3.284-1.013.011-.545-.534-.423-2.326 2.782.468.523.578-.2 1.592 4.441-.1.934.433.523 2.37-2.604-.378-.478-.689-.011-1.002-2.738 4.141 1.302 1.269-.846-.457-4.218 3.261 1.547-.089.468.3.523 2.882-1.358zm-2.782-6.043a.84.84 0 0 0-.835.834c0 .456.378.835.835.835a.84.84 0 0 0 .834-.835.84.84 0 0 0-.834-.834m25.173 46.275c4.474-4.13 7.29-10.027 7.29-16.571C.267 7.412-9.86-2.717-22.28-2.717c-12.411 0-22.538 10.129-22.538 22.549 0 6.544 2.805 12.441 7.29 16.571C-44.739 31.495-49.48 23.237-49.48 13.9c0-14.981 12.219-27.2 27.2-27.2 14.978 0 27.21 12.219 27.21 27.2 0 9.337-4.752 17.606-11.953 22.503" style="fill:#fff;fill-opacity:1;fill-rule:nonzero;stroke:none" transform="matrix(1.19547 0 0 -1.19547 60.668 61.56)"/><path d="m0 0 1.325-.868 1.391.757L1.28 1.57Z" style="fill:#fff;fill-opacity:1;fill-rule:nonzero;stroke:none" transform="matrix(1.19547 0 0 -1.19547 32.555 71.14)"/><path d="M0 0c.723.768 3.739 3.239 4.641 2.259.645-.679.734-1.045.556-1.391C5.031.556 4.418.301 3.851.144 2.515-.222.745-.178 0 0m6.444 1.569c-.245.612-.657 1.224-.991 1.547-.601.59-1.436.579-2.137.29C1.792 2.782.245 1.547-.968.456c-.423.412-1.068 1.191-1.503 1.625-.723.757-1.179.657-1.714.256-.656-.512-1.201-.935-1.847-1.502-.49-.434-1.046-1.069-1.18-1.658-.089-.424.045-.902.991-1.236 2.126-.745 1.97-1.58 1.235-2.148-.478-.378-2.448-.234-3.706.345-1.057.49-1.847 1.369-1.636 2.727.278 1.814.512 2.715.601 3.628-.934.067-1.48-.022-1.914.267-.601.401-.779 1.347-.657 3.617-.089-.623-.445-1.257-.779-1.88-.245-.468-.4-1.169-.178-1.848.501-1.491 1.558-1.658 2.348-1.926-.078-1.179-.467-2.57-.3-3.839.133-.979.834-2.092 1.97-2.538 1.769-.712 3.995-1.235 5.108.023.724.823.99 1.513.968 2.092-.044 1.28-1.291 1.959-2.059 2.727-.478.489-.256 1.146.457 1.624.645.446 1.09.412 1.68-.044.379-.301.835-.868 1.325-1.558-.134-.345-.201-.801-.234-1.08.389.29.59.424.868.546.501-.212 1.168-.245 1.914-.234 1.102.011 2.349.167 3.15.334 1.491.323 3.205.969 2.504 2.793" style="fill:#fff;fill-opacity:1;fill-rule:nonzero;stroke:none" transform="matrix(1.19547 0 0 -1.19547 26.329 47.631)"/><path d="m0 0-.679-.701c.1-.345.467-.779.957-.868l.701.756C.601-.668.156-.267 0 0" style="fill:#fff;fill-opacity:1;fill-rule:nonzero;stroke:none" transform="matrix(1.19547 0 0 -1.19547 20.848 26.011)"/><path d="M0 0c0-1.068.579-.434 1.469.289l-.267 9.861c0 .813-.757.278-1.491-.212z" style="fill:#fff;fill-opacity:1;fill-rule:nonzero;stroke:none" transform="matrix(1.19547 0 0 -1.19547 21.898 42.07)"/><path d="M0 0c-.245.234-.746.3-.768.3.267-1.001-.011-2.515-.823-3.617C-.734-2.916.523-1.625 0 0" style="fill:#fff;fill-opacity:1;fill-rule:nonzero;stroke:none" transform="matrix(1.19547 0 0 -1.19547 19.557 38.291)"/><path d="M0 0c.011-.033.167-.512.434-.712C1.97-.401 3.116.768 3.428 1.425 1.992.412.79-.111 0 0" style="fill:#fff;fill-opacity:1;fill-rule:nonzero;stroke:none" transform="matrix(1.19547 0 0 -1.19547 23.442 54.244)"/><path d="M0 0c.434-2.304 4.93-1.369 6.266-.801C7.613-.222 8.681.734 8.514 2.126c-.1.857-.435 1.458-.968 2.014-.468.501.022.913-.301 1.224-.367.379-1.402 1.425-1.925 1.258-.301-.1-1.047-1.002-.857-1.28.378-.557 1.736-1.413 2.47-2.337.279-.367.445-.857.445-1.191C7.378.701 4.741.278 3.84.178 2.949.067 1.981.111 1.424.612c-.322.278-.512.801-.411 1.636C.323 1.936-.156.812 0 0" style="fill:#fff;fill-opacity:1;fill-rule:nonzero;stroke:none" transform="matrix(1.19547 0 0 -1.19547 24.72 36.216)"/><path d="M0 0c-1.202-.545-3.762-1.213-3.795.534-.924-.412-1.369-1.947-.635-2.704.679-.701 2.593-.267 4.085.289 1.246.468 3.906 1.792 3.706 3.417-.1.857-.646 1.168-1.525 1.948-.579.523-.011.656-.334.979-.322.323-1.09.801-1.546.768-.312-.011-1.136-1.18-.835-1.402.69-.479 1.38-.88 2.047-1.38C2.37 1.558 1.013.457 0 0" style="fill:#fff;fill-opacity:1;fill-rule:nonzero;stroke:none" transform="matrix(1.19547 0 0 -1.19547 34.618 23.79)"/><path d="M0 0c.011.022.501.501.456.835-.935 1.38-2.459 1.135-3.149.689C-1.514 1.524-.601.812 0 0" style="fill:#fff;fill-opacity:1;fill-rule:nonzero;stroke:none" transform="matrix(1.19547 0 0 -1.19547 38.237 16.738)"/><path d="M0 0c-.389.156-.835.557-.991.824l-.678-.702c.089-.344.467-.79.968-.879z" style="fill:#fff;fill-opacity:1;fill-rule:nonzero;stroke:none" transform="matrix(1.19547 0 0 -1.19547 24.466 26.73)"/><path d="M0 0c.078-.323.434-.734.89-.812l.657.701C1.191.033.768.412.623.656Z" style="fill:#fff;fill-opacity:1;fill-rule:nonzero;stroke:none" transform="matrix(1.19547 0 0 -1.19547 44.13 24.401)"/><path d="M0 0c1.781.1 3.339.846 4.541 2.203.478.535.812 1.136.812 1.714 0 .357-.244.702-.568.857-.589.29-1.48.346-1.624.724-.29.757 1.079 1.168 1.58 1.157 1.08-.044 1.614-.845 2.014-.823.145.011.335.078.59.445.88 1.313-1.391 1.97-2.326 1.925-1.335-.056-2.17-.589-2.849-1.268-.723-.724-1.691-2.226-.411-2.85.367-.178 1.324-.222 1.324-.768 0-.233-.178-.511-.457-.745-.422-.334-1.636-.668-2.704-.668-1.013-.011-1.892.267-1.881 1.113.022 1.079.379 1.58 1.091 2.671-1.213-.545-3.05-2.137-2.482-3.861C-2.971.69-1.569-.1 0 0" style="fill:#fff;fill-opacity:1;fill-rule:nonzero;stroke:none" transform="matrix(1.19547 0 0 -1.19547 21.859 24.973)"/><path d="M0 0c1.748-.278 4.207.445 5.075 2.281.345.735.345 1.703.378 2.204.089 1.413-1.502.156-1.524-.1-.045-.556.166-1.336-.29-1.903-.511-.646-1.647-.735-2.582-.712-.868.011-2.259.111-2.537 1.19-.156.59-.022 1.38.034 2.304l.322 6.266c.067.812-.779.378-1.558-.056l-.39-7.568C-3.228 2.426-2.738.423 0 0" style="fill:#fff;fill-opacity:1;fill-rule:nonzero;stroke:none" transform="matrix(1.19547 0 0 -1.19547 43.492 30.508)"/><path d="M0 0c.479-.667 2.003-1.847 3.762-1.936.256.278.078.879.078.913C2.972-1.213 1.759-.757 0 0" style="fill:#fff;fill-opacity:1;fill-rule:nonzero;stroke:none" transform="matrix(1.19547 0 0 -1.19547 22.31 58.541)"/><path d="M0 0c.1-.356.479-.79.968-.879l.713.757C1.291.022.834.434.679.701Z" style="fill:#fff;fill-opacity:1;fill-rule:nonzero;stroke:none" transform="matrix(1.19547 0 0 -1.19547 25.957 42.256)"/><path d="M0 0c-.367.145-.779.512-.924.768l-.634-.657c.089-.322.445-.734.901-.812z" style="fill:#fff;fill-opacity:1;fill-rule:nonzero;stroke:none" transform="matrix(1.19547 0 0 -1.19547 54.854 38.57)"/><path d="M0 0c-.368.133-.779.512-.924.756l-.634-.645c.089-.323.445-.734.901-.812z" style="fill:#fff;fill-opacity:1;fill-rule:nonzero;stroke:none" transform="matrix(1.19547 0 0 -1.19547 41.762 52.7)"/><path d="M0 0c-.368.133-.779.512-.924.756l-.634-.645c.089-.322.434-.734.901-.812z" style="fill:#fff;fill-opacity:1;fill-rule:nonzero;stroke:none" transform="matrix(1.19547 0 0 -1.19547 44.024 52.34)"/><path d="M0 0c.679.679 1.769 1.124 3.205 1.558-.701.19-2.582.089-3.817-.879C-.623.334-.022.022 0 0" style="fill:#fff;fill-opacity:1;fill-rule:nonzero;stroke:none" transform="matrix(1.19547 0 0 -1.19547 44.383 22.618)"/><path d="M0 0c-.048.888-.091 1.773-.059 2.646.022.445.133.745.523.968.413.239 1.009-.788 1.533-2.202A32 32 0 0 0 0 0m-5.724 9.935c.223.334.623.668.913.635.478-.034 1.035-.957 1.024-1.937-1.147.089-2.415.545-1.937 1.302m7.59-.111C.909 8.767-1.116 8.633-2.663 8.611c.022.29.011.567-.056.846-.323 1.536-1.502 2.715-2.092 2.593-1.058-.223-2.17-1.67-2.626-2.682-.357-.779.778-1.781 1.235-2.004.511-.256 1.146-.456 1.836-.589-1.023-1.688-3.07-2.445-5.088-2.582l.169 11.529c.145 1.358-1.058.201-1.814-.445l.108-11.07c-1.381.113-2.716.466-3.747.798.779-1.083 2.215-1.995 3.762-2.26l.033-3.316c.011-1.046.233-2.738 2.481-2.704 1.914.022 3.528.612 4.129 1.78.379.746.345 1.726-.3 2.928-.301.578-1.035-.201-.913-.479.178-.456.212-.757.156-1.18-.111-.701-.49-1.235-2.237-1.235-1.881 0-1.869.657-1.881 1.992l.032 2.169c2.439.251 4.978 1.96 6.156 3.93 2.226-.2 4.741.267 5.965 1.703.601.701 1.113 2.437 1.013 4.273.846-1.235 1.614-2.749 1.926-4.195.4-1.826.122-3.784-1.325-5.087-.339-.301-.731-.659-1.222-1.073a36 36 0 0 1-.881 2.52C1.532 6.385 1.298 6.285.431 5.784c-.446-.267-.913-.668-1.503-1.169-.489-.422-.523-1.157-.467-1.914.074-1.198.157-2.362.221-3.554-1.007-.66-1.41-.978-1-1.031.421-.052.74-.088 1.053-.058q.015-.369.026-.743c.034-1.324.334-2.994-1.324-3.35-1.224-.256-2.504-.345-4.029-.534-1.191-.156-2.248-.879-3.049-1.558-2.059-1.714-3.384-4.241-4.986-4.296-1.058-.045-2.159.957-2.159 3.238-1.291-1.902-.39-3.917.957-4.584 2.259-1.092 4.04 1.891 5.453 3.605 1.447 1.758 3.628 1.658 6.522 2.026 2.059.267 2.66.868 3.227 1.725.535.79.69 2.059.723 3.372.013.544 0 1.092-.024 1.639q1.29.776 2.359 1.497c.175-.594.329-1.206.448-1.79.334-1.691.289-2.96-.801-4.351C.731-7.749-1.651-8.862-4.099-9.919c2.538-.479 5.865 1.191 7.301 3.528.601.968.767 2.17.745 3.394A18 18 0 0 1 3.433.8c2.136 1.57 3.425 3.004 3.775 4.517.79 3.461-1.469 7.946-2.615 11.173-.579 1.625-1.001 2.671-1.525 2.527-.323-.089-.79-.657-1.547-1.681-.267-.356-.2-.812-.022-1.213.568-1.191 1.503-5.053.367-6.299" style="fill:#fff;fill-opacity:1;fill-rule:nonzero;stroke:none" transform="matrix(1.19547 0 0 -1.19547 49.283 46.842)"/><path d="m0 0 .954-1.933a.16.16 0 0 1 .122-.089l2.133-.31a.162.162 0 0 0 .09-.277L1.755-4.114a.16.16 0 0 1-.046-.143l.364-2.124a.162.162 0 0 0-.235-.172L-.07-5.55a.16.16 0 0 1-.152 0l-1.907-1.003a.163.163 0 0 0-.236.172l.364 2.124a.16.16 0 0 1-.047.143l-1.543 1.505a.162.162 0 0 0 .09.277l2.134.31a.17.17 0 0 1 .122.089L-.291 0C-.232.12-.06.12 0 0" style="fill:#edad19;fill-opacity:1;fill-rule:nonzero;stroke:none" transform="matrix(1.19547 0 0 -1.19547 29.3 .108)"/><path d="m0 0 .954-1.933a.16.16 0 0 1 .123-.089l2.133-.31a.162.162 0 0 0 .089-.277L1.756-4.114a.16.16 0 0 1-.047-.143l.365-2.124a.163.163 0 0 0-.236-.172L-.07-5.55a.16.16 0 0 1-.151 0l-1.908-1.003a.163.163 0 0 0-.236.172L-2-4.257a.16.16 0 0 1-.048.143l-1.543 1.505a.162.162 0 0 0 .091.277l2.132.31a.16.16 0 0 1 .123.089L-.292 0C-.231.12-.06.12 0 0" style="fill:#edad19;fill-opacity:1;fill-rule:nonzero;stroke:none" transform="matrix(1.19547 0 0 -1.19547 39.536 .108)"/><path d="m0 0 .363-.735A.1.1 0 0 1 .438-.79l.811-.118a.1.1 0 0 0 .055-.171l-.586-.572a.1.1 0 0 1-.028-.088l.137-.808a.1.1 0 0 0-.145-.106l-.726.382a.1.1 0 0 1-.093 0l-.725-.382a.101.101 0 0 0-.146.106l.139.808a.1.1 0 0 1-.029.088l-.586.572a.1.1 0 0 0 .056.171l.81.118a.1.1 0 0 1 .076.055L-.179 0A.1.1 0 0 0 0 0" style="fill:#edad19;fill-opacity:1;fill-rule:nonzero;stroke:none" transform="matrix(1.8946 0 0 -1.8946 26.38 81.713)"/><path d="m0 0 .363-.735A.1.1 0 0 1 .438-.79l.811-.118a.1.1 0 0 0 .055-.171l-.586-.572a.1.1 0 0 1-.028-.088l.137-.808a.1.1 0 0 0-.145-.106l-.726.382a.1.1 0 0 1-.093 0l-.725-.382a.101.101 0 0 0-.146.106l.139.808a.1.1 0 0 1-.029.088l-.586.572a.1.1 0 0 0 .056.171l.81.118a.1.1 0 0 1 .076.055L-.179 0A.1.1 0 0 0 0 0" style="fill:#edad19;fill-opacity:1;fill-rule:nonzero;stroke:none" transform="matrix(1.8946 0 0 -1.8946 34.12 82.43)"/><path d="m0 0 .363-.735A.1.1 0 0 1 .438-.79l.811-.118a.1.1 0 0 0 .055-.171l-.586-.572a.1.1 0 0 1-.028-.088l.137-.808a.1.1 0 0 0-.145-.106l-.726.382a.1.1 0 0 1-.093 0l-.725-.382a.101.101 0 0 0-.146.106l.139.808a.1.1 0 0 1-.029.088l-.586.572a.1.1 0 0 0 .056.171l.81.118a.1.1 0 0 1 .076.055L-.179 0A.1.1 0 0 0 0 0" style="fill:#edad19;fill-opacity:1;fill-rule:nonzero;stroke:none" transform="matrix(1.8946 0 0 -1.8946 41.645 81.759)"/></svg>